<svg width="16" height="16" viewBox="0 0 16 16" fill="none" xmlns="http://www.w3.org/2000/svg">
<g clip-path="url(#clip0)">
<path d="M15.9244 7.81211L10.4719 2.21216C10.3717 2.10897 10.19 2.10897 10.0898 2.21216L8.60899 3.73296C8.50793 3.83667 8.50818 4.0023 8.60953 4.10577L11.1191 6.66493H0.266654C0.119468 6.66493 0 6.7844 0 6.93159V9.06491C0 9.2121 0.119468 9.33157 0.266654 9.33157H11.1191L8.60953 11.8907C8.50818 11.9942 8.50793 12.1598 8.60899 12.2635L10.0898 13.7843C10.1399 13.8358 10.2087 13.8649 10.2807 13.8649C10.3527 13.8649 10.4215 13.8358 10.4719 13.7843L15.9244 8.18439C16.0252 8.08064 16.0252 7.91558 15.9244 7.81211Z" fill="#333333"/>
</g>
<defs>
<clipPath id="clip0">
<rect width="16" height="16" fill="white"/>
</clipPath>
</defs>
</svg>
