<svg width="24" height="24" viewBox="0 0 24 24" fill="none" xmlns="http://www.w3.org/2000/svg">
<path d="M21.1875 5.625H18.3307C17.9582 2.46197 15.2614 0 12 0C8.73858 0 6.04177 2.46197 5.66934 5.625H2.8125C2.29472 5.625 1.875 6.04472 1.875 6.5625V23.0625C1.875 23.5803 2.29472 24 2.8125 24H21.1875C21.7053 24 22.125 23.5803 22.125 23.0625V6.5625C22.125 6.04472 21.7053 5.625 21.1875 5.625ZM12 1.875C14.2258 1.875 16.079 3.49945 16.4371 5.625H7.56286C7.92098 3.49945 9.77419 1.875 12 1.875ZM20.25 22.125H3.75V7.5H5.625V10.3125C5.625 10.8303 6.04472 11.25 6.5625 11.25C7.08028 11.25 7.5 10.8303 7.5 10.3125V7.5H16.5V10.3125C16.5 10.8303 16.9197 11.25 17.4375 11.25C17.9553 11.25 18.375 10.8303 18.375 10.3125V7.5H20.25V22.125Z" fill="#333333"/>
</svg>
