<svg width="26" height="26" viewBox="0 0 26 26" fill="none" xmlns="http://www.w3.org/2000/svg">
<path d="M23.6611 0.85944C23.4377 0.538452 23.1367 0.303714 22.759 0.154806C22.5184 0.0518228 22.2663 0.000240756 22.0027 0.000240756V0H3.99328C3.72983 0 3.47794 0.0515821 3.23731 0.154566C2.85932 0.303353 2.55849 0.538391 2.33513 0.859199C2.11183 1.18001 2 1.535 2 1.92461V24.0753C2 24.4651 2.11183 24.8199 2.33513 25.141C2.55849 25.4618 2.85932 25.6968 3.23731 25.8455C3.4777 25.9485 3.72983 25.9999 3.99328 25.9999C4.53191 25.9999 5.00711 25.8108 5.41964 25.4331L12.998 18.1465L20.5765 25.4333C20.9775 25.7993 21.4529 25.9826 22.0026 25.9826C22.2891 25.9826 22.5412 25.9371 22.7589 25.8454C23.1367 25.6967 23.4376 25.4617 23.6611 25.1406C23.8844 24.8199 23.996 24.4649 23.996 24.0753V1.92485C23.996 1.53524 23.8842 1.18025 23.6611 0.85944ZM21.7965 23.5423L14.5275 16.5655L12.998 15.1051L11.4687 16.5655L4.19979 23.5423V2.19985H21.7965V23.5423Z" fill="#CFCFCF"/>
</svg>
