<svg width="58" height="58" viewBox="0 0 58 58" fill="none" xmlns="http://www.w3.org/2000/svg">
<g clip-path="url(#clip0)">
<path d="M17.0194 42.593L9.76944 39.5117C8.85594 39.1202 7.78656 39.5516 7.39506 40.4724C7.00356 41.3931 7.43131 42.4589 8.35569 42.8467L15.6057 45.928C15.8341 46.0259 16.0769 46.073 16.3126 46.073C17.0158 46.073 17.6864 45.6597 17.9801 44.9674C18.3716 44.0466 17.9438 42.9809 17.0194 42.593Z" fill="#333333"/>
<path d="M2.5 13L27 2L56.5 13L55.5 45.5L27 56L2.5 45.5V13Z" fill="#FDC305"/>
<path d="M57.9746 12.6037C57.9637 12.4188 57.9529 12.234 57.884 12.0491C57.8441 11.944 57.7716 11.8715 57.7136 11.7772C57.6737 11.712 57.6448 11.654 57.6012 11.596C57.3983 11.3313 57.1481 11.1283 56.8473 11.0123C56.8364 11.0087 56.8328 10.9978 56.8219 10.9942L27.8219 0.122831C27.3833 -0.047544 26.9011 -0.036669 26.4734 0.148206L1.09837 11.0196C1.073 11.0305 1.06213 11.0595 1.03675 11.0703C0.786625 11.19 0.576375 11.3748 0.402375 11.6032C0.351625 11.6685 0.308125 11.7265 0.264625 11.799C0.228375 11.8606 0.174 11.9041 0.145 11.973C0.047125 12.205 0 12.4442 0 12.6835V12.6871V45.3121C0 46.0371 0.431375 46.6932 1.09837 46.9796L26.4734 57.8546H26.477C26.6981 57.9488 26.9374 57.9996 27.1875 57.9996C27.405 57.9996 27.6189 57.9597 27.8255 57.8836L27.8907 57.8582C27.8907 57.8582 27.8908 57.8582 27.8944 57.8582L56.8255 47.0086C57.5324 46.744 58 46.0661 58 45.3121V12.6871C58 12.6545 57.9746 12.6327 57.9746 12.6037ZM25.375 53.4357L3.625 44.1158V15.4383L25.375 24.7582V53.4357ZM27.231 21.6082L6.41625 12.6871L27.231 3.76958L51.0255 12.6871L45.3524 14.815L35.1806 10.2583C34.6659 10.0263 34.0786 10.0517 33.5892 10.32L26.4806 13.3396C25.81 13.6223 25.375 14.2893 25.375 15.018C25.375 15.7502 25.8172 16.4136 26.4988 16.6927L33.0926 19.4151L27.231 21.6082ZM39.875 20.7382L43.5 19.3788V28.213L39.875 29.5723V20.7382ZM38.0697 17.5446L31.871 14.989L34.4375 13.8978L40.5275 16.6238L38.0697 17.5446ZM54.375 44.0542L29 53.5698V24.8163L36.25 22.0976V32.1896C36.25 32.7841 36.5436 33.3387 37.0294 33.6795C37.3375 33.8933 37.6964 34.0021 38.0625 34.0021C38.2764 34.0021 38.4939 33.9622 38.7005 33.8861L45.9505 31.1673C46.6574 30.8991 47.125 30.2248 47.125 29.4708V18.0195L54.375 15.3007V44.0542Z" fill="#333333"/>
</g>
<defs>
<clipPath id="clip0">
<rect width="58" height="58" fill="white"/>
</clipPath>
</defs>
</svg>
