<svg width="27" height="27" viewBox="0 0 27 27" fill="none" xmlns="http://www.w3.org/2000/svg">
<path d="M16.7159 25.9538L8.99844 22.0613H4.90344C3.76757 22.0583 2.67907 21.6058 1.87588 20.8026C1.0727 19.9994 0.620157 18.9109 0.617188 17.7751V9.18007C0.617184 8.04225 1.06841 6.95086 1.87192 6.14525C2.67542 5.33963 3.76562 4.88555 4.90344 4.88257H17.7959C18.9348 4.88554 20.0262 5.33926 20.8315 6.14456C21.6367 6.94985 22.0905 8.04121 22.0934 9.18007V17.7751C22.0905 18.9129 21.6364 20.0031 20.8308 20.8066C20.0251 21.6101 18.9338 22.0613 17.7959 22.0613H16.6709L16.7159 25.9538ZM4.90344 7.03132C4.33447 7.03427 3.78964 7.26161 3.38731 7.66394C2.98498 8.06627 2.75764 8.6111 2.75469 9.18007V17.7751C2.75764 18.344 2.98498 18.8889 3.38731 19.2912C3.78964 19.6935 4.33447 19.9209 4.90344 19.9238H9.45969L14.6234 22.5001V19.9238H17.8409C18.4099 19.9209 18.9547 19.6935 19.3571 19.2912C19.7594 18.8889 19.9867 18.344 19.9897 17.7751V9.18007C19.9867 8.6111 19.7594 8.06627 19.3571 7.66394C18.9547 7.26161 18.4099 7.03427 17.8409 7.03132H4.90344Z" fill="#333333"/>
<path d="M22.0963 17.7637H20.9713V15.6262H22.0963C22.6614 15.6233 23.2029 15.3991 23.6046 15.0016C24.0063 14.6041 24.2362 14.065 24.245 13.5V4.88246C24.2421 4.31349 24.0147 3.76866 23.6124 3.36633C23.2101 2.964 22.6652 2.73667 22.0963 2.73371H9.20375C8.63478 2.73667 8.08995 2.964 7.68762 3.36633C7.28529 3.76866 7.05796 4.31349 7.055 4.88246V6.00746H4.90625V4.88246C4.90922 3.74361 5.36294 2.65224 6.16824 1.84695C6.97353 1.04166 8.0649 0.587931 9.20375 0.584961H22.0963C23.2341 0.58794 24.3243 1.04203 25.1278 1.84764C25.9313 2.65326 26.3825 3.74464 26.3825 4.88246V13.5C26.3736 14.6319 25.9185 15.7147 25.1159 16.513C24.3134 17.3113 23.2283 17.7608 22.0963 17.7637Z" fill="#333333"/>
<path d="M5.98438 10.2488H16.7169V12.3975H5.98438V10.2488Z" fill="#333333"/>
<path d="M5.98438 14.5461H16.7169V16.6949H5.98438V14.5461Z" fill="#333333"/>
</svg>
