<svg width="24" height="24" viewBox="0 0 24 24" fill="none" xmlns="http://www.w3.org/2000/svg">
<path d="M20.4177 0H3.58727C3.02791 0 2.57031 0.457641 2.57031 1.01695V22.983C2.57031 23.5424 3.02795 24 3.58727 24C4.14658 24 4.60422 23.5424 4.60422 22.983V2.03391H15.1478L9.58727 4.22034C9.23134 4.37287 8.97709 4.7288 8.97709 5.13558V18.8644C8.97709 19.2712 9.18049 19.6271 9.58727 19.7796L20.0619 23.8982C20.1635 23.9491 20.3161 23.9491 20.4178 23.9491C20.4393 23.9491 20.4607 23.9483 20.482 23.9471C20.4917 23.9466 20.5013 23.9459 20.5109 23.9451C20.519 23.9445 20.527 23.9437 20.5351 23.9428C20.6977 23.927 20.854 23.8786 20.9771 23.7966C21.1851 23.6925 21.322 23.494 21.3882 23.2815C21.3885 23.2808 21.3887 23.2801 21.3889 23.2794C21.39 23.276 21.391 23.2725 21.392 23.2691C21.4196 23.1796 21.4347 23.0839 21.4347 22.983V1.01695C21.4347 0.457641 20.9771 0 20.4177 0ZM10.9601 5.79661L19.4008 2.51133V21.4887L10.9601 18.2034V5.79661Z" fill="#333333"/>
<path d="M13.1459 10.8813C12.5865 10.8813 12.1289 11.339 12.1289 11.8983V12C12.1289 12.5593 12.5865 13.0169 13.1459 13.0169C13.7052 13.0169 14.1628 12.6101 14.1628 12V11.8983C14.1628 11.3389 13.7052 10.8813 13.1459 10.8813Z" fill="#333333"/>
</svg>
