<svg width="50" height="50" viewBox="0 0 50 50" fill="none" xmlns="http://www.w3.org/2000/svg">
<g clip-path="url(#clip0)">
<path d="M22.619 27.3809L42.7156 4.92002C42.3836 4.81726 42.0313 4.76184 41.6667 4.76184H3.57143C1.60714 4.76184 0 6.36899 0 8.33327V46.4285C0 46.7931 0.0554289 47.1454 0.158181 47.4774L22.619 27.3809Z" fill="#0F9D58"/>
<path d="M22.621 27.381L2.52441 49.8418C2.85643 49.9446 3.20873 50 3.57335 50H41.6686C42.0332 50 42.3855 49.9446 42.7175 49.8418L22.621 27.381Z" fill="#4285F4"/>
<path d="M22.6172 27.3812L45.078 47.478C45.1808 47.146 45.2362 46.7937 45.2362 46.429V8.33338C45.2362 7.96875 45.1808 7.61644 45.078 7.28442L22.6172 27.3812Z" fill="#D2D2D2"/>
<path d="M45.2398 46.4286L23.8112 25L19.6445 28.5714L41.0731 50H41.6683C43.6326 50 45.2398 48.3929 45.2398 46.4286Z" fill="#F1F1F1"/>
<path d="M41.6667 4.76184L0 46.4285C0 48.3928 1.60714 49.9999 3.57143 49.9999H4.16667L45.2381 8.92851V8.33327C45.2381 6.36899 43.631 4.76184 41.6667 4.76184Z" fill="#FFDE48"/>
<path d="M41.6667 4.76184H3.57143C1.60714 4.76184 0 6.36899 0 8.33327V8.63089C0 6.6666 1.60714 5.05946 3.57143 5.05946H41.6667C43.631 5.05946 45.2381 6.6666 45.2381 8.63089V8.33327C45.2381 6.36899 43.631 4.76184 41.6667 4.76184Z" fill="white" fill-opacity="0.2"/>
<path d="M41.6667 49.7024H3.57143C1.60714 49.7024 0 48.0953 0 46.131V46.4286C0 48.3929 1.60714 50 3.57143 50H41.6667C43.631 50 45.2381 48.3929 45.2381 46.4286V46.131C45.2381 48.0953 43.631 49.7024 41.6667 49.7024Z" fill="#263238" fill-opacity="0.1"/>
<path d="M10.1169 13.6905V16.2262H13.6406C13.3608 17.7321 12.0394 18.8273 10.1169 18.8273C7.97998 18.8273 6.24191 17.0178 6.24191 14.8869C6.24191 12.756 7.97998 10.9465 10.1169 10.9465C11.0811 10.9465 11.9383 11.2798 12.6228 11.9226L14.4977 10.0477C13.3609 8.98218 11.8847 8.33337 10.1169 8.33337C6.49786 8.33337 3.56934 11.2619 3.56934 14.881C3.56934 18.5 6.49786 21.4285 10.1169 21.4285C13.8966 21.4285 16.4025 18.7678 16.4025 15.0298C16.4025 14.5655 16.3608 14.1191 16.2834 13.6905H10.1169V13.6905Z" fill="#EEEEEE"/>
<g opacity="0.25" filter="url(#filter0_f)">
<path d="M38.0914 0C31.514 0 26.1865 5.32738 26.1865 11.9048C26.1865 20.875 36.2045 25.5476 37.389 38.3512C37.4248 38.7083 37.7283 38.9881 38.0914 38.9881C38.4545 38.9881 38.7641 38.7083 38.7938 38.3512C39.9784 25.5476 49.9963 20.875 49.9963 11.9048C49.9964 5.32738 44.6689 0 38.0914 0Z" fill="#DB4437"/>
</g>
<path d="M38.0914 0C31.514 0 26.1865 5.32738 26.1865 11.9048C26.1865 20.875 36.2045 25.5476 37.389 38.3512C37.4248 38.7083 37.7283 38.9881 38.0914 38.9881C38.4545 38.9881 38.7641 38.7083 38.7938 38.3512C39.9784 25.5476 49.9963 20.875 49.9963 11.9048C49.9964 5.32738 44.6689 0 38.0914 0Z" fill="#DB4437"/>
<path d="M38.0973 16.0716C40.3985 16.0716 42.264 14.2061 42.264 11.9049C42.264 9.60376 40.3985 7.73828 38.0973 7.73828C35.7961 7.73828 33.9307 9.60376 33.9307 11.9049C33.9307 14.2061 35.7961 16.0716 38.0973 16.0716Z" fill="#7B231E"/>
<path d="M38.0944 0.297617C44.6123 0.297617 49.904 5.53571 49.9933 12.0298C49.9933 11.9881 49.9993 11.9464 49.9993 11.9048C49.9993 5.32738 44.6718 0 38.0944 0C31.5169 0 26.1895 5.32738 26.1895 11.9048C26.1895 11.9464 26.1954 11.9881 26.1954 12.0298C26.2847 5.53572 31.5764 0.297617 38.0944 0.297617Z" fill="white" fill-opacity="0.2"/>
<path d="M38.7968 38.0536C38.767 38.4107 38.4575 38.6905 38.0944 38.6905C37.7313 38.6905 37.4217 38.4107 37.392 38.0536C36.2193 25.3096 26.2906 20.6191 26.1954 11.7322C26.1954 11.7917 26.1895 11.8453 26.1895 11.9048C26.1895 20.875 36.2074 25.5477 37.392 38.3512C37.4277 38.7084 37.7313 38.9881 38.0944 38.9881C38.4575 38.9881 38.767 38.7084 38.7968 38.3512C39.9813 25.5476 49.9993 20.875 49.9993 11.9048C49.9993 11.8453 49.9933 11.7917 49.9933 11.7322C49.8981 20.6191 39.9753 25.3155 38.7968 38.0536Z" fill="#3E2723" fill-opacity="0.2"/>
<path d="M38.0952 0C34.2024 0 30.744 1.86905 28.5714 4.7619H3.57143C1.60714 4.7619 0 6.36905 0 8.33333V46.4286C0 48.3929 1.60714 50 3.57143 50H41.6667C43.6309 50 45.2381 48.3929 45.2381 46.4286V23.1131C47.7381 19.4583 50 16.1667 50 11.9048C50 5.32738 44.6726 0 38.0952 0Z" fill="url(#paint0_radial)"/>
</g>
<defs>
<filter id="filter0_f" x="-1509.15" y="-1535.33" width="3094.48" height="3109.65" filterUnits="userSpaceOnUse" color-interpolation-filters="sRGB">
<feFlood flood-opacity="0" result="BackgroundImageFix"/>
<feBlend mode="normal" in="SourceGraphic" in2="BackgroundImageFix" result="shape"/>
<feGaussianBlur stdDeviation="767.667" result="effect1_foregroundBlur"/>
</filter>
<radialGradient id="paint0_radial" cx="0" cy="0" r="1" gradientUnits="userSpaceOnUse" gradientTransform="translate(1.24107 5.74762) scale(60.9798)">
<stop stop-color="white" stop-opacity="0.1"/>
<stop offset="1" stop-color="white" stop-opacity="0"/>
</radialGradient>
<clipPath id="clip0">
<rect width="50" height="50" fill="white"/>
</clipPath>
</defs>
</svg>
