<svg width="14" height="14" viewBox="0 0 14 14" fill="none" xmlns="http://www.w3.org/2000/svg">
<path d="M12.4141 0H1.58594C1.2839 0 1.03906 0.244836 1.03906 0.546875V11.375C1.03906 11.677 1.2839 11.9219 1.58594 11.9219H4.69536L6.6133 13.8398C6.82686 14.0534 7.17311 14.0534 7.3867 13.8398L9.30464 11.9219H12.4141C12.7161 11.9219 12.9609 11.677 12.9609 11.375V0.546875C12.9609 0.244836 12.7161 0 12.4141 0ZM11.8672 10.8281H9.07812C8.93309 10.8281 8.79397 10.8857 8.69143 10.9883L7 12.6797L5.30857 10.9883C5.20603 10.8857 5.06691 10.8281 4.92188 10.8281H2.13281V1.09375H11.8672V10.8281ZM7.53878 5.4498V8.08131C7.53878 8.24709 7.29704 8.41285 7.00003 8.41285C6.68921 8.41285 6.46819 8.24709 6.46819 8.08131V5.4498C6.46819 5.2564 6.68921 5.12518 7.00003 5.12518C7.29704 5.12518 7.53878 5.2564 7.53878 5.4498ZM6.43368 3.99243C6.43368 3.72996 6.68232 3.50205 7.00003 3.50205C7.31084 3.50205 7.55948 3.72996 7.55948 3.99243C7.55948 4.25491 7.31084 4.48973 7.00003 4.48973C6.68232 4.48973 6.43368 4.25491 6.43368 3.99243Z" fill="#333333"/>
</svg>
