<svg width="24" height="24" viewBox="0 0 24 24" fill="none" xmlns="http://www.w3.org/2000/svg">
<path d="M12.0005 8.56738C11.4044 8.56738 10.9805 8.8191 10.9805 9.19002V14.2372C10.9805 14.5551 11.4044 14.8731 12.0005 14.8731C12.5701 14.8731 13.0338 14.5551 13.0338 14.2372V9.19002C13.0338 8.8191 12.5701 8.56738 12.0005 8.56738Z" fill="#C2C2C2" fill-opacity="0.98"/>
<path d="M12.0003 5.45459C11.391 5.45459 10.9141 5.89175 10.9141 6.39514C10.9141 6.89853 11.391 7.34895 12.0003 7.34895C12.5965 7.34895 13.0734 6.89853 13.0734 6.39514C13.0734 5.89179 12.5965 5.45459 12.0003 5.45459Z" fill="#C2C2C2" fill-opacity="0.98"/>
<path d="M12 0C6.29991 0 1.6875 4.61006 1.6875 10.3065C1.6875 14.958 4.74998 18.8203 8.87892 20.132L11.2242 23.5889C11.3986 23.846 11.6892 24 12 24C12.3108 24 12.6014 23.846 12.7758 23.5889L15.1211 20.132C19.2518 18.8197 22.3125 14.956 22.3125 10.3065C22.3125 4.60645 17.6964 0 12 0ZM14.2802 18.4265C14.0667 18.4862 13.8813 18.6196 13.7569 18.8031L12 21.3926L10.2432 18.8031C10.1187 18.6197 9.93328 18.4862 9.71977 18.4266C6.20517 17.4438 3.5625 14.2116 3.5625 10.3065C3.5625 5.65734 7.34756 1.875 12 1.875C16.6524 1.875 20.4375 5.65734 20.4375 10.3065C20.4375 14.2155 17.7909 17.4449 14.2802 18.4265Z" fill="#C2C2C2" fill-opacity="0.98"/>
</svg>
