<svg width="20" height="20" viewBox="0 0 20 20" fill="none" xmlns="http://www.w3.org/2000/svg">
<g clip-path="url(#clip0)">
<path d="M17.501 3.12402H5.00542C4.31531 3.12402 3.75586 3.68348 3.75586 4.37358C3.75586 5.06369 4.31531 5.62315 5.00542 5.62315H17.501C18.1911 5.62315 18.7506 5.06369 18.7506 4.37358C18.7506 3.68348 18.1911 3.12402 17.501 3.12402Z" fill="#333333"/>
<path d="M2.50612 4.37369C2.50472 4.04283 2.37214 3.72603 2.1375 3.49275C1.65013 3.00828 0.862988 3.00828 0.37562 3.49275C0.140937 3.72603 0.0083662 4.04283 0.00699949 4.37369C-0.00233316 4.45464 -0.00233316 4.53641 0.00699949 4.61736C0.0211351 4.69877 0.0441739 4.77839 0.0757253 4.85477C0.109268 4.92877 0.148981 4.99984 0.194434 5.0672C0.239301 5.13725 0.291665 5.20219 0.350629 5.26088C0.407484 5.3175 0.470313 5.3678 0.538063 5.41083C0.60386 5.45874 0.675202 5.49861 0.750488 5.52954C0.83331 5.57249 0.9216 5.60404 1.0129 5.62325C1.09384 5.63231 1.17561 5.63231 1.25656 5.62325C1.58652 5.62353 1.90321 5.49326 2.1375 5.26088C2.19646 5.20219 2.24883 5.13725 2.2937 5.0672C2.33915 4.99984 2.37886 4.92877 2.4124 4.85477C2.45227 4.77933 2.48371 4.69971 2.50612 4.61736C2.51545 4.53641 2.51545 4.45464 2.50612 4.37369Z" fill="#333333"/>
<path d="M2.50693 9.99674C2.51623 9.91579 2.51623 9.83402 2.50693 9.75308C2.48534 9.67244 2.45387 9.59481 2.41322 9.52191C2.38104 9.44525 2.34125 9.372 2.29451 9.30323C2.2512 9.23396 2.19864 9.1709 2.13831 9.1158C1.65095 8.63132 0.863801 8.63132 0.376433 9.1158C0.14175 9.34908 0.00917921 9.66588 0.0078125 9.99674C0.0102335 10.1614 0.0419802 10.3243 0.10153 10.4778C0.132847 10.5517 0.17049 10.6228 0.21399 10.6902C0.261512 10.7582 0.315946 10.821 0.376433 10.8777C0.431648 10.9379 0.494673 10.9905 0.563867 11.0339C0.629664 11.0818 0.700967 11.1217 0.776292 11.1526C0.852477 11.1846 0.932175 11.2077 1.01371 11.2213C1.09364 11.2392 1.17545 11.2476 1.25737 11.2463C1.33832 11.2556 1.42009 11.2556 1.50104 11.2463C1.58054 11.2327 1.65817 11.2096 1.73221 11.1776C1.80956 11.1469 1.88297 11.107 1.95088 11.0589C2.02007 11.0154 2.0831 10.9629 2.13831 10.9027C2.19853 10.8475 2.25109 10.7844 2.29451 10.7152C2.34254 10.6495 2.38241 10.5782 2.41322 10.5028C2.4559 10.4199 2.48741 10.3316 2.50693 10.2404C2.51654 10.1595 2.51654 10.0777 2.50693 9.99674Z" fill="#333333"/>
<path d="M2.50701 15.6198C2.51627 15.5388 2.51627 15.4571 2.50701 15.3761C2.48542 15.2935 2.45394 15.2138 2.41329 15.1387C2.37975 15.0647 2.34004 14.9936 2.29459 14.9263C2.25116 14.8571 2.1986 14.7941 2.13839 14.7388C1.65102 14.2544 0.863877 14.2544 0.376509 14.7388C0.316296 14.7941 0.263737 14.8571 0.220314 14.9263C0.174862 14.9936 0.135149 15.0647 0.101606 15.1387C0.0691957 15.2148 0.0461178 15.2945 0.0328803 15.3761C0.0152693 15.4561 0.00691288 15.5379 0.0078891 15.6198C0.00929485 15.9506 0.141865 16.2674 0.376509 16.5007C0.431724 16.5609 0.494749 16.6135 0.563944 16.6569C0.629741 16.7049 0.701044 16.7447 0.776369 16.7756C0.852553 16.8077 0.932252 16.8308 1.01379 16.8444C1.09372 16.8623 1.17553 16.8707 1.25745 16.8693C1.3384 16.8787 1.42017 16.8787 1.50111 16.8693C1.58062 16.8557 1.65825 16.8326 1.73228 16.8006C1.80964 16.7699 1.88305 16.7301 1.95096 16.6819C2.02015 16.6385 2.08318 16.5859 2.13839 16.5257C2.1986 16.4705 2.25116 16.4075 2.29459 16.3383C2.34265 16.2726 2.38252 16.2012 2.41329 16.1259C2.45593 16.0429 2.48745 15.9547 2.50701 15.8635C2.51662 15.7825 2.51662 15.7007 2.50701 15.6198Z" fill="#333333"/>
<path d="M18.7506 8.74707H5.00542C4.31531 8.74707 3.75586 9.30652 3.75586 9.99663C3.75586 10.6867 4.31531 11.2462 5.00542 11.2462H18.7506C19.4407 11.2462 20.0001 10.6867 20.0001 9.99663C20.0001 9.30652 19.4407 8.74707 18.7506 8.74707Z" fill="#333333"/>
<path d="M13.1276 14.3701H5.00542C4.31531 14.3701 3.75586 14.9296 3.75586 15.6197C3.75586 16.3098 4.31531 16.8692 5.00542 16.8692H13.1276C13.8177 16.8692 14.3771 16.3098 14.3771 15.6197C14.3771 14.9296 13.8177 14.3701 13.1276 14.3701Z" fill="#333333"/>
</g>
<defs>
<clipPath id="clip0">
<rect width="20" height="20" fill="white"/>
</clipPath>
</defs>
</svg>
