<svg width="14" height="14" viewBox="0 0 14 14" fill="none" xmlns="http://www.w3.org/2000/svg">
<path d="M7 0C3.13389 0 0 3.134 0 7C0 10.8669 3.1383 14 7 14H9.33332C9.58089 14 9.81818 13.9017 9.99318 13.7266C10.1684 13.5516 10.2666 13.3142 10.2666 13.0666C10.2666 12.5512 9.84875 12.1333 9.33332 12.1333H7C4.16475 12.1333 1.86668 9.83265 1.86668 7C1.86668 4.16492 4.165 1.86668 7 1.86668C9.835 1.86668 12.1333 4.16492 12.1333 7V7.46668C12.1333 7.98309 11.714 8.4 11.2 8.4C10.6856 8.4 10.2667 7.98265 10.2667 7.46668V7C10.2667 5.19709 8.80297 3.73332 7 3.73332C5.19704 3.73332 3.73332 5.19709 3.73332 7C3.73332 8.80291 5.19704 10.2667 7 10.2667C7.90136 10.2667 8.71804 9.90073 9.30954 9.30945C9.60285 9.60282 10.1455 10.2667 11.2 10.2667C12.7463 10.2667 14 9.01307 14 7.46668V7C14 3.134 10.8661 0 7 0ZM7 8.4C6.22743 8.4 5.6 7.77268 5.6 7C5.6 6.22732 6.22743 5.6 7 5.6C7.77257 5.6 8.4 6.22732 8.4 7C8.4 7.77268 7.77257 8.4 7 8.4Z" fill="#FDC305"/>
</svg>
