<svg width="20" height="20" viewBox="0 0 20 20" fill="none" xmlns="http://www.w3.org/2000/svg">
<path d="M15.9292 2.45591C14.3455 0.872191 12.2398 0 10.0002 0C7.76053 0 5.6549 0.872152 4.0711 2.45591C2.48743 4.03959 1.61523 6.14514 1.61523 8.3848C1.61523 10.6245 2.48743 12.7301 4.0711 14.3138L9.58589 19.8284C9.70031 19.9429 9.85027 20 10.0002 20C10.1502 20 10.3001 19.9428 10.4145 19.8284L15.9291 14.3138C17.5128 12.7301 18.3849 10.6245 18.385 8.38484C18.3849 6.1451 17.5128 4.03955 15.9292 2.45591ZM12.6335 11.018C11.9301 11.7214 10.995 12.1088 10.0002 12.1088C9.0055 12.1088 8.07034 11.7214 7.36701 11.0181C6.66361 10.3147 6.27627 9.37953 6.27627 8.3848C6.27627 7.39011 6.66361 6.45495 7.36701 5.75155C8.07034 5.04818 9.0055 4.66084 10.0002 4.66084C10.995 4.66084 11.9301 5.04818 12.6335 5.75155C13.3368 6.45487 13.7242 7.39003 13.7242 8.38476C13.7242 9.37949 13.3368 10.3147 12.6335 11.018Z" fill="#333333"/>
</svg>
