<svg width="22" height="22" viewBox="0 0 22 22" fill="none" xmlns="http://www.w3.org/2000/svg">
<path d="M11 0C6.45012 0 2.75 3.70012 2.75 8.25C2.75 13.9686 10.197 21.4816 10.5132 21.7992C10.648 21.9326 10.824 22 11 22C11.176 22 11.352 21.9326 11.4867 21.7992C11.803 21.4816 19.25 13.9686 19.25 8.25C19.25 3.70012 15.5499 0 11 0ZM11 12.375C8.72575 12.375 6.875 10.5243 6.875 8.25C6.875 5.97575 8.72575 4.125 11 4.125C13.2743 4.125 15.125 5.97575 15.125 8.25C15.125 10.5243 13.2743 12.375 11 12.375Z" fill="#FDC305"/>
</svg>
