<svg width="24" height="24" viewBox="0 0 24 24" fill="none" xmlns="http://www.w3.org/2000/svg">
<path d="M11.8545 5.32682V9.13171H8.63499V5.32682H6.87891V10.0097C6.87891 10.4947 7.272 10.8878 7.75697 10.8878H12.7326C13.2175 10.8878 13.6106 10.4947 13.6106 10.0097V5.32682H11.8545Z" fill="#FDC305"/>
<path d="M23.1219 0.936607H4.39027C4.15758 0.936607 3.93398 1.02909 3.7695 1.19386L0.25725 4.70606C0.0924844 4.87054 0 5.09414 0 5.32682V22.1854C0 22.6703 0.393094 23.0634 0.878062 23.0634H19.6098C19.8428 23.0634 20.0661 22.9707 20.2305 22.8062L23.7428 19.294C23.9075 19.1295 24 18.9062 24 18.6732V1.81462C24 1.32965 23.6069 0.936607 23.1219 0.936607ZM22.2439 18.3096L19.2463 21.3073H1.75608V5.69062L4.75402 2.69268H22.2439V18.3096H22.2439Z" fill="#FDC305"/>
<path d="M22.502 1.19386L19.2471 4.44877H0.878906V6.20484H19.6106C19.8436 6.20484 20.0669 6.11236 20.2314 5.94759L23.7436 2.43539L22.502 1.19386Z" fill="#FDC305"/>
<path d="M20.4865 5.32682H18.7305V22.1854H20.4865V5.32682Z" fill="#FDC305"/>
</svg>
