<svg width="24" height="24" viewBox="0 0 24 24" fill="none" xmlns="http://www.w3.org/2000/svg">
<path d="M19.2008 9.24844H18.357V6.87656C18.357 3.37031 15.507 0.515625 12.0008 0.515625C8.49453 0.515625 5.64453 3.37031 5.64453 6.87188V9.24375H4.80547C3.97578 9.24375 3.30078 9.91875 3.30078 10.7484V21.9797C3.30078 22.8094 3.97578 23.4844 4.80547 23.4844H19.2055C20.0352 23.4844 20.7102 22.8094 20.7102 21.9797V10.7484C20.7055 9.92344 20.0305 9.24844 19.2008 9.24844ZM7.55703 6.87188C7.55703 4.42031 9.54922 2.42812 12.0008 2.42812C14.4523 2.42812 16.4445 4.42031 16.4445 6.87188V9.23906H7.55703V6.87188ZM18.7883 21.5719H5.21328V11.1609H18.793V21.5719H18.7883Z" fill="#C4C4C4"/>
<path d="M11.9992 20.1423C12.5289 20.1423 12.9555 19.7157 12.9555 19.186V16.7204C12.9555 16.1907 12.5289 15.7642 11.9992 15.7642C11.4695 15.7642 11.043 16.1907 11.043 16.7204V19.186C11.043 19.711 11.4695 20.1423 11.9992 20.1423Z" fill="#C4C4C4"/>
</svg>
