<svg width="70" height="96" viewBox="0 0 70 96" fill="none" xmlns="http://www.w3.org/2000/svg">
<path d="M60.1858 1.27258H1.33398V86.2316H60.1858V1.27258Z" fill="white"/>
<path d="M61.0614 87.1166H0.458008V0.387573H61.0614V87.1166ZM2.20955 85.3466H59.3099V2.15755H2.20955V85.3466Z" fill="#333333"/>
<path d="M68.593 1.27258H60.1855V86.2316H68.593V1.27258Z" fill="#FDC305"/>
<path d="M69.4685 87.1166H59.3096V0.387573H69.4685V87.1166ZM61.0611 85.3466H67.717V2.15755H61.0611V85.3466Z" fill="#333333"/>
<path d="M60.1858 86.2316H1.33398V94.7275H60.1858V86.2316Z" fill="#FDC305"/>
<path d="M61.0614 95.6125H0.458008V85.3466H61.0614V95.6125ZM2.20955 93.8425H59.3099V87.1165H2.20955V93.8425Z" fill="#333333"/>
<path d="M68.5934 8.88342H64.3896V10.6534H68.5934V8.88342Z" fill="#333333"/>
<path d="M68.5934 16.1404H64.3896V17.9104H68.5934V16.1404Z" fill="#333333"/>
<path d="M68.5934 23.5743H64.3896V25.3443H68.5934V23.5743Z" fill="#333333"/>
<path d="M68.5934 31.0082H64.3896V32.7782H68.5934V31.0082Z" fill="#333333"/>
<path d="M68.5934 38.2651H64.3896V40.0351H68.5934V38.2651Z" fill="#333333"/>
<path d="M68.5934 45.6991H64.3896V47.4691H68.5934V45.6991Z" fill="#333333"/>
<path d="M68.5934 53.3099H64.3896V55.0799H68.5934V53.3099Z" fill="#333333"/>
<path d="M68.5934 60.5669H64.3896V62.3369H68.5934V60.5669Z" fill="#333333"/>
<path d="M68.5934 68.0009H64.3896V69.7708H68.5934V68.0009Z" fill="#333333"/>
<path d="M31.4605 86.2317H29.709V90.4796H31.4605V86.2317Z" fill="#333333"/>
<path d="M38.817 86.2317H37.0654V90.4796H38.817V86.2317Z" fill="#333333"/>
<path d="M46.1734 86.2317H44.4219V90.4796H46.1734V86.2317Z" fill="#333333"/>
<path d="M53.5299 86.2317H51.7783V90.4796H53.5299V86.2317Z" fill="#333333"/>
<path d="M23.9283 86.2317H22.1768V90.4796H23.9283V86.2317Z" fill="#333333"/>
<path d="M16.7476 86.2317H14.9961V90.4796H16.7476V86.2317Z" fill="#333333"/>
<path d="M9.39022 86.2317H7.63867V90.4796H9.39022V86.2317Z" fill="#333333"/>
<path d="M68.5934 75.6117H64.3896V77.3817H68.5934V75.6117Z" fill="#333333"/>
</svg>
