<svg width="166" height="166" viewBox="0 0 166 166" fill="none" xmlns="http://www.w3.org/2000/svg">
<path d="M102.46 15.2091L24.9014 111.878L75.1108 152.161L152.669 55.4926L102.46 15.2091Z" fill="white"/>
<path d="M75.2844 153.786L23.2803 112.057L102.286 13.5947L154.291 55.3237L75.2844 153.786ZM26.5203 111.702L74.9293 150.545L151.05 55.6788L102.641 16.8363L26.5203 111.702Z" fill="#333333"/>
<path d="M108.54 20.0861L30.9814 116.755L69.5677 147.713L147.126 51.0441L108.54 20.0861Z" fill="white"/>
<path d="M69.7419 149.338L29.3594 116.936L108.365 18.4736L148.747 50.8759L148.026 51.7751L69.7419 149.338ZM32.5994 116.581L69.3854 146.098L145.506 51.2325L108.72 21.7152L32.5994 116.581Z" fill="#333333"/>
<path d="M89.1913 101.97C99.0307 101.97 107.007 93.9941 107.007 84.1547C107.007 74.3153 99.0307 66.3389 89.1913 66.3389C79.3519 66.3389 71.3755 74.3153 71.3755 84.1547C71.3755 93.9941 79.3519 101.97 89.1913 101.97Z" fill="white"/>
<path d="M89.1912 103.124C78.7317 103.124 70.2227 94.6146 70.2227 84.1551C70.2227 73.6956 78.7317 65.1865 89.1912 65.1865C99.6508 65.1865 108.16 73.6956 108.16 84.1551C108.16 94.6146 99.6508 103.124 89.1912 103.124ZM89.1912 67.4921C80.0028 67.4921 72.5282 74.9667 72.5282 84.1551C72.5282 93.3435 80.0028 100.818 89.1912 100.818C98.3797 100.818 105.854 93.3435 105.854 84.1551C105.854 74.9667 98.3797 67.4921 89.1912 67.4921Z" fill="#333333"/>
<path d="M76.9509 15.2114L22.1348 126.368L79.8692 154.84L134.685 43.6828L76.9509 15.2114Z" fill="white"/>
<path d="M80.3903 156.385L20.5903 126.893L76.4263 13.6729L136.228 43.164L80.3903 156.385ZM23.6767 125.844L79.342 153.297L133.14 44.2122L77.4745 16.7592L23.6767 125.844Z" fill="#333333"/>
<path d="M83.7088 18.5454L28.8926 129.702L72.7324 151.321L127.549 40.1648L83.7088 18.5454Z" fill="white"/>
<path d="M73.2523 152.865L27.3472 130.226L83.1847 17.0059L129.09 39.6449L73.2523 152.865ZM30.4335 129.177L72.2041 149.777L126.002 40.6916L84.2314 20.0922L30.4335 129.177Z" fill="#333333"/>
<path d="M78.9056 103.21C88.745 103.21 96.7214 95.2333 96.7214 85.3939C96.7214 75.5545 88.745 67.5781 78.9056 67.5781C69.0662 67.5781 61.0898 75.5545 61.0898 85.3939C61.0898 95.2333 69.0662 103.21 78.9056 103.21Z" fill="#FDC305"/>
<path d="M78.9025 104.364C70.2044 104.364 62.344 98.3311 60.3858 89.4962C58.1233 79.2842 64.5912 69.1366 74.8017 66.8741C85.0122 64.6116 95.1613 71.0794 97.4238 81.29C98.5197 86.2362 97.6236 91.3146 94.9015 95.5875C92.1779 99.8605 87.9541 102.818 83.0079 103.914C81.6323 104.218 80.2582 104.364 78.9025 104.364ZM62.6376 88.9982C64.625 97.9684 73.5398 103.649 82.5099 101.662C86.8551 100.7 90.5655 98.1021 92.9572 94.3487C95.3488 90.5952 96.1358 86.1347 95.1736 81.7895C93.1862 72.8194 84.2714 67.1385 75.3012 69.1259C66.3311 71.1117 60.6502 80.0266 62.6376 88.9982Z" fill="#333333"/>
</svg>
