<svg width="23" height="22" viewBox="0 0 23 22" fill="none" xmlns="http://www.w3.org/2000/svg">
<g clip-path="url(#clip0)">
<path d="M22.365 4.55161V1.21159H19.025L18.4782 0.664782L18.4786 0.661435L18.4741 0.660691L18.4674 0.653995L18.4626 0.658831L15.592 0.167816L6.0217 9.30626L6.79244 10.1135L15.9569 1.36262L17.4601 1.61966L1.88342 16.5472L0.671875 21.7974L6.31631 21.3941L22.9349 5.12148L22.365 4.55161ZM21.2491 2.32754V3.43567L20.141 2.32754H21.2491ZM2.72818 17.8488L5.06497 20.3645L2.09879 20.5765L2.72818 17.8488ZM6.19951 19.9464L3.25603 16.7771L16.2285 4.34516L19.1496 7.26632L6.19951 19.9464ZM19.9472 6.48554L17.0346 3.57293L18.4511 2.21557L21.3488 5.1133L19.9472 6.48554Z" fill="#333333"/>
</g>
<defs>
<clipPath id="clip0">
<rect width="22.9565" height="22" fill="white"/>
</clipPath>
</defs>
</svg>
