<svg width="24" height="24" viewBox="0 0 24 24" fill="none"
    xmlns="http://www.w3.org/2000/svg">
    <path d="M21.1875 7.45312H18.7969V0H5.20312V7.45312H2.8125C1.2616 7.45312 0 8.71472 0 10.2656V17.8594C0 19.4103 1.2616 20.6719 2.8125 20.6719H5.20312V24H18.7969V20.6719H21.1875C22.7384 20.6719 24 19.4103 24 17.8594V10.2656C24 8.71472 22.7384 7.45312 21.1875 7.45312ZM7.07812 1.875H16.9219V7.45312H7.07812V1.875ZM7.07812 22.125V15.8906H16.9219V22.125H7.07812ZM22.125 17.8594C22.125 18.3763 21.7044 18.7969 21.1875 18.7969H18.7969V15.8906H20.25V14.0156H3.75V15.8906H5.20312V18.7969H2.8125C2.29559 18.7969 1.875 18.3763 1.875 17.8594V10.2656C1.875 9.74872 2.29559 9.32812 2.8125 9.32812H21.1875C21.7044 9.32812 22.125 9.74872 22.125 10.2656V17.8594ZM15.0469 3.75V5.625H8.95312V3.75H15.0469Z" fill="white"/>
</svg>
