<svg width="28" height="28" viewBox="0 0 28 28" fill="none" xmlns="http://www.w3.org/2000/svg">
<path d="M16.5457 7.63623H11.773C11.2461 7.63623 10.8185 8.06386 10.8185 8.59078V16.5452H8.59126C8.06435 16.5452 7.63672 16.9729 7.63672 17.4998C7.63672 18.0267 8.06435 18.4543 8.59126 18.4543H10.8185V19.4089C10.8185 19.9358 11.2461 20.3634 11.773 20.3634C12.2999 20.3634 12.7276 19.9358 12.7276 19.4089V18.4543H15.5912C16.1181 18.4543 16.5457 18.0267 16.5457 17.4998C16.5457 16.9729 16.1181 16.5452 15.5912 16.5452H12.7276V15.2726H16.5457C18.6508 15.2726 20.3639 13.5595 20.3639 11.4544C20.3639 9.34933 18.6508 7.63623 16.5457 7.63623ZM16.5457 13.3635H12.7276V9.54532H16.5457C17.5984 9.54532 18.4548 10.4018 18.4548 11.4544C18.4548 12.5071 17.5984 13.3635 16.5457 13.3635Z" fill="#333333"/>
<path d="M14.0001 0C6.28098 0 0 6.28098 0 14.0001C0 21.7192 6.28098 27.9999 14.0001 27.9999C21.7192 27.9999 27.9999 21.7192 27.9999 14.0001C27.9999 6.28098 21.7192 0 14.0001 0V0ZM14.0001 26.0908C7.33341 26.0908 1.90909 20.6665 1.90909 14.0001C1.90909 7.33341 7.33341 1.90909 14.0001 1.90909C20.6665 1.90909 26.0908 7.33341 26.0908 14.0001C26.0908 20.6665 20.6665 26.0908 14.0001 26.0908Z" fill="#333333"/>
</svg>
