<svg width="24" height="24" viewBox="0 0 24 24" fill="none"
  xmlns="http://www.w3.org/2000/svg">
  <rect x="3.42578" y="3.42857" width="17.1429" height="11.4286" fill="#333333"/>
  <path d="M22.4898 23.2364L21.7379 0.679686C21.7252 0.300703 21.4143 0 21.0351 0H2.96014C2.58092 0 2.27 0.300703 2.25739 0.679686L1.50429 23.2734C1.49797 23.4638 1.56922 23.6487 1.70168 23.7857C1.83415 23.9227 2.01654 24 2.20704 24H21.7882C21.7887 24 21.7889 24 21.7892 24C22.1775 24 22.4923 23.6851 22.4923 23.2968C22.4923 23.2764 22.4914 23.2563 22.4898 23.2364ZM11.9976 10.4437C9.11823 10.4437 6.77575 8.1012 6.77575 5.22187C6.77575 4.83355 7.09056 4.51874 7.47888 4.51874C7.86719 4.51874 8.182 4.83355 8.182 5.22187C8.182 7.32585 9.89373 9.03748 11.9976 9.03748C14.1016 9.03748 15.8132 7.3258 15.8132 5.22187C15.8132 4.83355 16.128 4.51874 16.5164 4.51874C16.9047 4.51874 17.2195 4.83355 17.2195 5.22187C17.2195 8.1012 14.877 10.4437 11.9976 10.4437Z" fill="#FDC305"/>
</svg>
