<svg width="24" height="24" viewBox="0 0 24 24" fill="none" xmlns="http://www.w3.org/2000/svg">
<path d="M23.0282 7.06605C22.4497 5.69949 21.6214 4.47261 20.5668 3.41964C19.5122 2.36667 18.2841 1.54045 16.9166 0.96379C15.5063 0.369208 14.0089 0.0677261 12.4659 0.0677261C12.4598 0.0677261 12.4538 0.0677261 12.4477 0.0677261C10.8961 0.0700542 9.39263 0.375493 7.97881 0.975197C6.61295 1.55465 5.38793 2.38343 4.33729 3.43827C3.28687 4.4931 2.46321 5.72184 1.88935 7.09003C1.29547 8.50641 0.996081 10.0113 1.00004 11.5627C1.00726 14.4148 2.06838 17.1458 3.98785 19.2527C5.89452 21.3453 8.48912 22.6549 11.2939 22.9396C11.3959 22.9501 11.5088 22.9561 11.6336 22.9561C12.4414 22.9561 13.7398 22.6986 15.6925 21.6636C17.1753 20.8776 18.6743 19.8116 19.6046 18.8813C20.6441 17.8419 21.7019 16.503 22.5072 15.2081C23.1569 14.1633 23.9315 12.6776 23.9315 11.5329C23.9313 9.98402 23.6274 8.48104 23.0282 7.06605ZM4.67625 18.6257C2.91276 16.6899 1.93777 14.1808 1.93126 11.5603C1.92776 10.1339 2.20247 8.75109 2.74817 7.45018C3.27523 6.19327 4.03208 5.06464 4.99729 4.09547C5.96249 3.12631 7.0881 2.36481 8.34268 1.83261C9.64127 1.28157 11.023 1.00127 12.4494 0.998943C12.4549 0.998943 12.4605 0.998943 12.4661 0.998943C13.8841 0.998943 15.26 1.27575 16.5553 1.82191C17.8115 2.35154 18.9399 3.11071 19.9091 4.07848C20.8785 5.04624 21.6395 6.17372 22.171 7.429C22.6776 8.62514 22.9539 9.8902 22.9949 11.1944C22.5603 11.2072 21.8842 11.2703 21.0403 11.4875C20.1785 11.7093 19.311 12.0481 18.4622 12.4941C17.4074 13.0487 16.3782 13.7715 15.4032 14.6431C13.256 16.5624 12.0466 18.5459 11.4101 19.8717C10.9845 20.7582 10.7506 21.475 10.6309 21.9083C8.34734 21.5069 6.25513 20.3587 4.67625 18.6257ZM21.7164 14.7167C20.9472 15.9538 19.9373 17.2317 18.946 18.223C18.0767 19.0923 16.6629 20.0954 15.2565 20.8408C13.7838 21.6214 12.4556 22.0454 11.567 22.024C11.8995 20.897 12.9869 18.0521 16.0238 15.3374C16.9318 14.5258 17.887 13.8523 18.8626 13.3357C19.6414 12.9234 20.4352 12.6094 21.2219 12.4024C21.9468 12.2117 22.5333 12.1479 22.9202 12.1295C22.7561 12.817 22.3428 13.7094 21.7164 14.7167Z" fill="black"/>
</svg>
