<svg width="24" height="24" viewBox="0 0 24 24" fill="none" xmlns="http://www.w3.org/2000/svg">
<path d="M22.4415 5.14307H1.55845C0.699094 5.14307 0 5.84221 0 6.70152V21.3508C0 22.2102 0.699094 22.9093 1.55845 22.9093H22.4415C23.3009 22.9093 24 22.2102 24 21.3508V6.70152C24 5.84221 23.3009 5.14307 22.4415 5.14307ZM22.1299 21.0392H1.87013V7.01319H22.1299V21.0392Z" fill="#333333"/>
<path d="M23.0635 10.4414H0.933594V12.3115H23.0635V10.4414Z" fill="#333333"/>
<path d="M14.9601 1.09082H9.34977C8.14663 1.09082 7.16797 2.06952 7.16797 3.27262V6.07781H9.03809V3.27262C9.03809 3.10368 9.18083 2.96095 9.34977 2.96095H14.9601C15.1291 2.96095 15.2718 3.10368 15.2718 3.27262V6.07781H17.1419V3.27262C17.1419 2.06952 16.163 1.09082 14.9601 1.09082Z" fill="#333333"/>
</svg>
