<svg width="20" height="20" viewBox="0 0 20 20" fill="none" xmlns="http://www.w3.org/2000/svg">
<path d="M10 0C4.48591 0 0 4.48591 0 10C0 15.5141 4.48591 20 10 20C15.5141 20 20 15.5141 20 10C20 4.48591 15.5141 0 10 0ZM10 17.8142C5.69113 17.8142 2.18579 14.3089 2.18579 10C2.18579 5.69135 5.69113 2.18579 10 2.18579C14.3089 2.18579 17.8142 5.69135 17.8142 10C17.8142 14.3089 14.3089 17.8142 10 17.8142Z" fill="#333333"/>
<path d="M10.8661 10.0119V5.82072C10.8661 5.35274 10.4869 4.97351 10.0191 4.97351C9.55114 4.97351 9.17188 5.35274 9.17188 5.82072V10.2826C9.17188 10.2959 9.17516 10.3084 9.1758 10.3217C9.16466 10.5521 9.24402 10.786 9.41995 10.962L12.5752 14.1169C12.9061 14.4479 13.4425 14.4479 13.7732 14.1169C14.1039 13.786 14.1041 13.2496 13.7732 12.9189L10.8661 10.0119Z" fill="#333333"/>
</svg>
