<svg width="26" height="26" viewBox="0 0 26 26" fill="none" xmlns="http://www.w3.org/2000/svg">
<g clip-path="url(#clip0)">
<path d="M20.1044 5.0415L20.0689 23.5136C20.0689 23.7061 19.9063 23.8688 19.7137 23.8688H6.28747C6.09496 23.8688 5.93226 23.7062 5.93226 23.5115L5.89676 5.0415L3.76562 5.04577L3.80112 23.5136C3.80112 24.8843 4.91643 26 6.28747 26H19.7137C21.0844 26 22.2 24.8846 22.2 23.5157L22.2355 5.04577L20.1044 5.0415Z" fill="#C4C4C4"/>
<path d="M24.2246 3.97803H1.77653C1.18798 3.97803 0.710938 4.45507 0.710938 5.04362C0.710938 5.63218 1.18798 6.10921 1.77653 6.10921H24.2246C24.8132 6.10921 25.2902 5.63218 25.2902 5.04362C25.2902 4.45502 24.8131 3.97803 24.2246 3.97803Z" fill="#C4C4C4"/>
<path d="M15.8739 0H10.1197C9.14046 0 8.34375 0.796707 8.34375 1.77597V5.04375H10.4749V2.13114H15.5186V5.0437H17.6497V1.77592C17.6498 0.796707 16.8531 0 15.8739 0Z" fill="#C4C4C4"/>
<path d="M10.4758 9.51904C9.8872 9.51904 9.41016 9.99608 9.41016 10.5846V19.1803C9.41016 19.7688 9.8872 20.2459 10.4758 20.2459C11.0643 20.2459 11.5413 19.7688 11.5413 19.1803V10.5846C11.5413 9.99603 11.0643 9.51904 10.4758 9.51904Z" fill="#C4C4C4"/>
<path d="M15.5226 9.51904C14.9341 9.51904 14.457 9.99608 14.457 10.5846V19.1803C14.457 19.7688 14.9341 20.2459 15.5226 20.2459C16.1112 20.2459 16.5882 19.7688 16.5882 19.1803V10.5846C16.5882 9.99603 16.1112 9.51904 15.5226 9.51904Z" fill="#C4C4C4"/>
</g>
<defs>
<clipPath id="clip0">
<rect width="26" height="26" fill="white"/>
</clipPath>
</defs>
</svg>
