<svg width="28" height="28" viewBox="0 0 28 28" fill="none" xmlns="http://www.w3.org/2000/svg">
<path d="M28 12.8426L22.5668 5.88804H19.487V3.55469H0V21.5287H3.30362C3.55879 23.1783 4.98832 24.4453 6.70835 24.4453C8.42838 24.4453 9.85791 23.1783 10.1131 21.5287H17.887C18.1421 23.1783 19.5717 24.4453 21.2916 24.4453C23.0116 24.4453 24.4412 23.1783 24.6964 21.5287H28V12.8426ZM23.0963 21C23.0963 21.9951 22.2867 22.8047 21.2916 22.8047C20.2966 22.8047 19.487 21.9951 19.487 21C19.487 20.0049 20.2966 19.1953 21.2916 19.1953C22.2867 19.1953 23.0963 20.0049 23.0963 21ZM8.51304 21C8.51304 21.9951 7.70345 22.8047 6.70835 22.8047C5.71326 22.8047 4.90366 21.9951 4.90366 21C4.90366 20.0049 5.71326 19.1953 6.70835 19.1953C7.70345 19.1953 8.51304 20.0049 8.51304 21ZM6.70835 17.5547C5.19766 17.5547 3.91191 18.5324 3.44821 19.888H1.64062V14.5287H12.8687L14.5042 8.80469H1.64062V5.19531H17.8463V19.888H9.96849C9.5048 18.5324 8.21904 17.5547 6.70835 17.5547ZM1.64068 12.888V10.4453H12.3292L11.6313 12.888H1.64068ZM21.2916 17.5547C20.6303 17.5547 20.0122 17.7424 19.487 18.0667V13.9453H26.3594V19.888H24.5518C24.0881 18.5324 22.8023 17.5547 21.2916 17.5547ZM19.487 12.3047V7.52866H21.7666L25.4979 12.3047H19.487Z" fill="#333333"/>
</svg>
