<svg width="27" height="27" viewBox="0 0 27 27" fill="none" xmlns="http://www.w3.org/2000/svg">
<path d="M26.6395 12.8778C23.9311 8.19789 18.8964 5.29077 13.5 5.29077C8.10324 5.29077 3.06893 8.19757 0.359871 12.8778L0 13.5002L0.360194 14.1228C3.06861 18.8024 8.10324 21.7095 13.5 21.7095C18.8964 21.7095 23.9311 18.8027 26.6398 14.1228L27 13.5002L26.6395 12.8778ZM13.635 17.9141C10.9793 17.9141 8.81845 15.7536 8.81845 13.0976C8.81845 10.4419 10.9793 8.28106 13.635 8.28106C16.2906 8.28106 18.4515 10.4419 18.4515 13.0976C18.4515 15.7536 16.2906 17.9141 13.635 17.9141ZM2.89644 13.5002C4.04207 11.7616 5.58705 10.3555 7.36634 9.37071C6.71392 10.4636 6.33204 11.7354 6.33204 13.0976C6.33204 15.0426 7.10065 16.8057 8.34369 18.1163C6.1534 17.1364 4.24693 15.5497 2.89644 13.5002ZM19.1304 17.8904C20.2518 16.6066 20.9369 14.9322 20.9369 13.0972C20.9369 11.8358 20.6159 10.6487 20.0505 9.61245C21.6544 10.5807 23.0489 11.8989 24.1029 13.4998C22.8515 15.3995 21.1214 16.9015 19.1304 17.8904ZM15.5301 13.0031C15.5301 14.1241 14.6207 15.0328 13.5003 15.0328C12.379 15.0328 11.4702 14.1238 11.4702 13.0031C11.4702 11.8817 12.3793 10.973 13.5003 10.973C14.621 10.973 15.5301 11.8817 15.5301 13.0031Z" fill="#333333"/>
</svg>
