<svg width="28" height="28" viewBox="0 0 28 28" fill="none" xmlns="http://www.w3.org/2000/svg">
<g clip-path="url(#clip0)">
<path d="M27.7505 20.2614C27.6752 20.1354 27.2097 19.1238 24.9695 17.0447C22.6243 14.8675 22.9393 15.2211 25.7641 11.4565C27.4844 9.16385 28.1722 7.76375 27.957 7.1652C27.7522 6.59466 26.4869 6.74517 26.4869 6.74517L22.2795 6.76967C22.2795 6.76967 21.968 6.72767 21.7353 6.86593C21.5095 7.00244 21.3642 7.31746 21.3642 7.31746C21.3642 7.31746 20.6974 9.0921 19.8084 10.6007C17.934 13.7842 17.1832 13.9522 16.8769 13.7544C16.1646 13.2942 16.3431 11.9028 16.3431 10.9157C16.3431 7.83025 16.8104 6.54391 15.4313 6.21138C14.9728 6.10112 14.6367 6.02762 13.4659 6.01537C11.9643 5.99962 10.6919 6.02062 9.97263 6.37239C9.4931 6.60691 9.12382 7.1302 9.34958 7.15995C9.62786 7.19671 10.2579 7.32972 10.5922 7.78475C11.0245 8.37104 11.0087 9.69064 11.0087 9.69064C11.0087 9.69064 11.2572 13.3222 10.4294 13.7737C9.86062 14.0835 9.08181 13.4517 7.41044 10.5622C6.55463 9.08335 5.90708 7.44697 5.90708 7.44697C5.90708 7.44697 5.78282 7.14245 5.56055 6.97969C5.29103 6.78192 4.91301 6.71892 4.91301 6.71892L0.912208 6.74342C0.912208 6.74342 0.311914 6.76092 0.0913975 7.02169C-0.104617 7.25446 0.0756463 7.73399 0.0756463 7.73399C0.0756463 7.73399 3.20838 15.0618 6.75414 18.7563C10.0076 22.1428 13.7004 21.9206 13.7004 21.9206H15.3735C15.3735 21.9206 15.8793 21.8645 16.1366 21.5863C16.3746 21.3308 16.3659 20.8512 16.3659 20.8512C16.3659 20.8512 16.3326 18.6058 17.3757 18.275C18.403 17.9495 19.7226 20.4452 21.121 21.406C22.178 22.1323 22.9813 21.9731 22.9813 21.9731L26.7214 21.9206C26.7214 21.9206 28.678 21.7998 27.7505 20.2614Z" fill="#737373"/>
</g>
<defs>
<clipPath id="clip0">
<rect width="28" height="28" fill="white"/>
</clipPath>
</defs>
</svg>
