<svg width="64" height="42" viewBox="0 0 64 42" fill="none" xmlns="http://www.w3.org/2000/svg">
<path d="M10.4079 0H6.99834C3.64859 0 0.807458 2.55006 0.807458 7.50063C0.807458 10.4706 2.18337 12.6606 4.63549 13.7407L0.0599038 22.0212C-0.0896887 22.2915 0.0599038 22.5009 0.298793 22.5009H2.42226C2.60181 22.5009 2.72149 22.4411 2.78135 22.2915L6.93849 14.1606H8.4341V22.2915C8.4341 22.3812 8.52384 22.5009 8.64304 22.5009H10.4977C10.6772 22.5009 10.7371 22.4112 10.7371 22.2616V0.30015C10.7371 0.0897345 10.6174 0 10.4079 0ZM8.4341 12.2408H7.17787C5.20399 12.2408 3.29001 10.8006 3.29001 7.20046C3.29001 3.4496 5.0843 1.91974 6.90854 1.91974H8.4341V12.2408Z" fill="#FF0303"/>
<path d="M21.6476 7.45923H19.7934C19.6433 7.45923 19.554 7.57892 19.554 7.66866V13.3991H16.114V7.66866C16.114 7.51907 16.0546 7.45923 15.905 7.45923H14.0504C13.9013 7.45923 13.8115 7.54902 13.8115 7.66866V22.2501C13.8115 22.3997 13.8714 22.4895 14.0205 22.4895H15.905C16.0247 22.4895 16.114 22.3997 16.114 22.2501V15.29H19.554V22.2501C19.554 22.3997 19.6433 22.4895 19.7934 22.4895H21.6476C21.7972 22.4895 21.8565 22.3698 21.8565 22.2501V7.66866C21.8565 7.54902 21.7672 7.45923 21.6476 7.45923V7.45923Z" fill="black"/>
<path d="M63.9879 21.53L63.7482 20.5097C63.7191 20.42 63.6889 20.39 63.599 20.39C63.4497 20.39 62.6422 20.7192 61.476 20.7192C59.2027 20.7192 58.0962 18.5301 58.0962 15.0496C58.0962 11.9888 59.0233 8.95904 60.578 8.95904C60.9971 8.95904 61.5056 9.07879 62.3131 9.8297C62.4031 9.9194 62.4628 9.9494 62.5518 9.9494C62.6422 9.9494 62.7322 9.88851 62.8216 9.73897L63.6291 8.41949C63.6889 8.32881 63.7191 8.23807 63.7191 8.14828C63.7191 8.02864 63.599 7.93884 63.4196 7.8491C62.1935 7.21881 61.3559 7.09912 60.6378 7.09912C57.8269 7.09912 55.6436 10.459 55.6436 15.7088C55.6436 20.2395 57.7369 22.8494 60.7278 22.8494C61.9845 22.8494 63.3301 22.25 63.8683 21.8591C63.9879 21.7693 64.0176 21.6497 63.9879 21.53V21.53Z" fill="black"/>
<path d="M50.9897 14.2389L54.579 7.66866C54.6388 7.57892 54.6086 7.45923 54.489 7.45923H52.7248C52.2158 7.45923 52.0364 7.63877 51.8575 8.02873L49.1649 13.6394C49.0158 13.9696 48.8662 14.179 48.7165 14.2698V7.66866C48.7165 7.54902 48.6567 7.45923 48.537 7.45923H46.5931C46.5038 7.45923 46.4141 7.54902 46.4141 7.66866V22.2801C46.4141 22.3698 46.4739 22.4895 46.5931 22.4895H48.537C48.6567 22.4895 48.7165 22.3997 48.7165 22.2801V14.7494C48.8063 14.8093 48.8662 14.8991 48.9265 15.0197L52.3359 22.0397C52.5153 22.3997 52.7846 22.4895 53.1735 22.4895H55.087C55.2071 22.4895 55.2367 22.3698 55.1774 22.2801L50.9897 14.2389Z" fill="black"/>
<path d="M33.8524 20.5996H33.4933C33.0445 20.5996 32.9253 20.4201 32.9253 20.0601V7.66866C32.9253 7.51907 32.8654 7.45923 32.7458 7.45923H26.7639C26.6148 7.45923 26.5245 7.54902 26.5245 7.66866V8.74876C26.5245 12.3789 26.3155 17.0592 24.4015 20.5996H23.7433C23.5638 20.5996 23.5039 20.6904 23.5039 20.8399C23.5039 20.8399 23.5039 24.4401 23.5039 25.2201C23.5039 25.3707 23.6236 25.4295 23.7133 25.4295H25.1491C25.4777 25.4295 25.5974 25.1901 25.5974 24.9797V22.4895H31.9982V25.2201C31.9982 25.3398 32.0875 25.4295 32.2072 25.4295H33.7327C33.9117 25.4295 34.0913 25.2799 34.0913 24.9797V20.8399C34.0913 20.6904 34.0015 20.5996 33.8524 20.5996V20.5996ZM30.6218 20.5996H26.2856C27.8111 17.9897 28.4086 15.0496 28.6185 11.4493C28.6779 10.6695 28.7078 9.85876 28.7078 9.34905H30.6218V20.5996Z" fill="black"/>
<path d="M39.9495 7.09912C36.7199 7.09912 35.2842 11.1791 35.2842 15.619C35.2842 20.1497 37.3179 22.8494 40.3086 22.8494C41.7737 22.8494 43.0604 22.28 43.7182 21.8591C43.8379 21.7993 43.8673 21.7095 43.8379 21.5898L43.5985 20.5696C43.5686 20.4499 43.5087 20.39 43.3591 20.39C43.2399 20.39 42.3722 20.7192 41.1459 20.7192C38.8429 20.7192 37.7662 18.7096 37.7662 16.0698C37.7662 15.7088 37.7662 15.3594 37.7662 15.3594C37.7662 15.3594 38.9327 15.4993 39.6204 15.4993H43.9875V14.2388C43.9875 9.58938 42.3418 7.09912 39.9495 7.09912V7.09912ZM39.6204 13.6094C38.9327 13.6094 37.856 13.7291 37.856 13.7291C37.856 13.7291 37.856 13.2794 37.9158 12.7987C38.1846 10.2486 38.813 8.95904 39.8598 8.95904C40.8172 8.95904 41.4152 10.2785 41.5648 12.5892C41.5942 13.069 41.5942 13.6094 41.5942 13.6094H39.6204V13.6094Z" fill="black"/>
<path d="M63.9744 27.5586H0.0478516V41.1693H63.9744V27.5586Z" fill="#04A300"/>
<path fill-rule="evenodd" clip-rule="evenodd" d="M12.9346 34.1869V30.6048H13.7516H14.5685V32.0981V33.5915L14.6516 33.5793C14.9497 33.5357 15.1596 33.4317 15.286 33.2649C15.3422 33.1909 15.4646 32.9459 15.5342 32.7684C15.5623 32.6968 15.6414 32.469 15.7101 32.2621C15.8499 31.8408 15.9219 31.6515 16.0184 31.4514C16.1754 31.1258 16.3194 30.9353 16.5013 30.8126C16.6298 30.7259 16.779 30.6609 16.9458 30.6189C17.2009 30.5546 17.4337 30.547 18.0093 30.5839L18.0968 30.5895V31.1717V31.7539L18.0272 31.754C17.924 31.7541 17.7097 31.7706 17.6075 31.7863C17.4122 31.8161 17.2778 31.8663 17.2061 31.9359C17.0886 32.0502 16.9604 32.3211 16.8357 32.7191C16.7296 33.0579 16.6768 33.1961 16.5839 33.3782C16.4046 33.73 16.2092 33.9305 15.9311 34.0481C15.8731 34.0726 15.8257 34.0954 15.8256 34.0987C15.8255 34.102 15.8648 34.1176 15.913 34.1334C16.1163 34.2003 16.2475 34.2668 16.3989 34.3797C16.7252 34.6231 17.0336 35.0509 17.2792 35.6009C17.3159 35.6831 18.2822 37.6764 18.3226 37.7534C18.3305 37.7684 18.2877 37.7691 17.4547 37.7669L16.5784 37.7646L16.1314 36.6873C15.8855 36.0947 15.6672 35.5715 15.6464 35.5246C15.5758 35.3659 15.4634 35.1545 15.3926 35.0476C15.2175 34.783 15.0385 34.6887 14.6695 34.6668L14.5685 34.6608V36.2149V37.7691H13.7516H12.9346V34.1869V34.1869Z" fill="white"/>
<path fill-rule="evenodd" clip-rule="evenodd" d="M20.8728 37.9303C20.4077 37.902 20.0134 37.7647 19.6922 37.5191C19.614 37.4594 19.471 37.3193 19.393 37.2261C19.2003 36.9958 19.0495 36.6891 18.9841 36.3943C18.916 36.0876 18.906 35.734 18.9569 35.4305C19.0075 35.128 19.1308 34.825 19.2987 34.5903C19.6518 34.0965 20.1657 33.8496 21.38 33.5901C22.1134 33.4334 22.6411 33.2881 22.9377 33.161L23.032 33.1206L23.0348 32.9603C23.0419 32.558 22.9737 32.2907 22.8151 32.0995C22.6911 31.9501 22.4489 31.8524 22.1117 31.8161C21.9547 31.7991 21.6433 31.801 21.523 31.8197C21.1231 31.8816 20.8907 32.0579 20.7066 32.4387C20.675 32.5041 20.6372 32.5899 20.6228 32.6294C20.5992 32.6941 20.5944 32.701 20.5753 32.6982C20.5412 32.6932 19.1552 32.4182 19.1373 32.4128C19.1159 32.4064 19.1189 32.3927 19.1895 32.1806C19.3394 31.7297 19.5233 31.4109 19.7942 31.1326C19.9678 30.9542 20.1137 30.8468 20.3207 30.7449C20.7641 30.5265 21.3152 30.432 22.0624 30.4462C22.6284 30.4569 23.0296 30.5138 23.3717 30.6318C23.8057 30.7814 24.1968 31.0945 24.3898 31.4467C24.5024 31.6523 24.5728 31.955 24.6115 32.4005C24.641 32.7407 24.6443 32.9986 24.6336 34.1691C24.6197 35.695 24.6256 36.1211 24.6664 36.5483C24.7013 36.9123 24.7875 37.2602 24.9361 37.6363C24.9628 37.7039 24.9847 37.7615 24.9847 37.7642C24.9847 37.767 24.6252 37.7693 24.1859 37.7693H23.3872L23.3551 37.6683C23.3374 37.6127 23.3005 37.4844 23.2731 37.3832C23.1988 37.1087 23.1541 36.9524 23.1457 36.9373C23.1399 36.9269 23.1199 36.9437 23.0567 37.0121C22.9678 37.1084 22.8041 37.2594 22.6908 37.3494C22.2404 37.7074 21.77 37.8942 21.2274 37.9305C21.0793 37.9405 21.0386 37.9404 20.8728 37.9303V37.9303L20.8728 37.9303ZM21.8648 36.6667C22.093 36.6171 22.3306 36.4993 22.5351 36.3343C22.6742 36.2221 22.7954 36.0719 22.8731 35.9153C22.9742 35.7119 23.0073 35.55 23.0275 35.1612C23.0394 34.9309 23.0393 34.2589 23.0274 34.2589C23.0224 34.2589 22.9709 34.2754 22.9129 34.2954C22.7422 34.3546 22.4246 34.4435 22.1119 34.5198C21.4901 34.6713 21.2629 34.7404 21.0658 34.838C20.8886 34.9256 20.7653 35.0409 20.6697 35.2083C20.4951 35.514 20.5308 35.9494 20.7568 36.2695C20.9113 36.4885 21.1297 36.6285 21.3956 36.6791C21.4902 36.697 21.7578 36.69 21.8648 36.6667V36.6667V36.6667Z" fill="white"/>
<path fill-rule="evenodd" clip-rule="evenodd" d="M26.4453 35.574V30.6048H27.2039H27.9624L27.9647 31.2123L27.967 31.8198L28.0639 31.659C28.2941 31.2763 28.5252 31.0326 28.8783 30.8002C29.1606 30.6143 29.4432 30.5096 29.7985 30.4591C29.9242 30.4413 30.2853 30.4446 30.418 30.4648C30.5506 30.485 30.7413 30.5312 30.8489 30.5693C31.2747 30.7197 31.6634 31.0079 31.9933 31.4179C32.5238 32.0772 32.7837 32.9753 32.7837 34.1497C32.7837 35.3992 32.5014 36.3418 31.9232 37.0228C31.8232 37.1406 31.624 37.3368 31.5178 37.4221C31.3283 37.5743 31.0724 37.7212 30.8605 37.7993C30.3784 37.9772 29.7998 37.9809 29.3399 37.8091C28.9793 37.6743 28.6237 37.4003 28.2454 36.9659C28.1812 36.8922 28.1177 36.8195 28.1042 36.8045L28.0798 36.777L28.0796 38.6601L28.0794 40.5432H27.2624H26.4454V35.574L26.4453 35.574ZM29.8361 36.5073C30.1583 36.4594 30.4366 36.2922 30.6634 36.0102C30.92 35.6912 31.0581 35.2458 31.1046 34.5876C31.1168 34.415 31.1168 33.9249 31.1046 33.7667C31.0797 33.4435 31.0258 33.1556 30.9487 32.9341C30.8454 32.6373 30.7284 32.4462 30.5258 32.2427C30.3084 32.0244 30.0899 31.9094 29.8077 31.8646C29.6955 31.8468 29.4302 31.8526 29.3272 31.8751C29.0561 31.9343 28.822 32.0656 28.6236 32.2696C28.3111 32.5909 28.1437 33.0135 28.0775 33.6483C28.0597 33.8191 28.0626 34.3833 28.0822 34.582C28.1496 35.2623 28.3143 35.7057 28.6282 36.0512C28.8733 36.3211 29.1515 36.4718 29.4843 36.515C29.555 36.5242 29.7513 36.5198 29.8361 36.5073L29.8361 36.5073Z" fill="white"/>
<path fill-rule="evenodd" clip-rule="evenodd" d="M35.6295 34.9099V32.0504H34.5701H33.5107V31.3277V30.605H36.4465H39.3822V31.3277V32.0504H38.3229H37.2635V34.9099V37.7693H36.4465H35.6295V34.9099V34.9099Z" fill="white"/>
<path fill-rule="evenodd" clip-rule="evenodd" d="M40.5752 34.1871V30.605H41.3922H42.2092V32.1171V33.6292L43.374 33.6331C44.5662 33.6371 44.627 33.6388 44.9647 33.6759C45.607 33.7465 45.9273 33.8753 46.2431 34.1898C46.5723 34.5176 46.7718 34.9418 46.8288 35.4351C46.847 35.5926 46.8423 35.9494 46.82 36.0977C46.6649 37.1314 45.9645 37.6649 44.6377 37.7602C44.5592 37.7658 43.7728 37.7692 42.5436 37.7693L40.5752 37.7693V34.1871H40.5752ZM44.283 36.6443C44.4083 36.6242 44.5406 36.5906 44.6287 36.5567C44.9212 36.4441 45.0883 36.2316 45.1408 35.9055C45.1575 35.8018 45.1599 35.5773 45.1453 35.4844C45.1092 35.2548 45.0071 35.0733 44.8519 34.9625C44.6668 34.8304 44.3845 34.7568 43.906 34.7159C43.8433 34.7105 43.4439 34.7042 43.0015 34.7016L42.2092 34.697V35.6814V36.6658L43.199 36.6626C44.0737 36.6598 44.1997 36.6576 44.2831 36.6443L44.283 36.6443Z" fill="white"/>
<path fill-rule="evenodd" clip-rule="evenodd" d="M47.9521 34.1871V30.605H48.7691H49.5861V34.1871V37.7693H48.7691H47.9521V34.1871Z" fill="white"/>
</svg>
