<svg width="11" height="11" viewBox="0 0 11 11" fill="none" xmlns="http://www.w3.org/2000/svg">
<g clip-path="url(#clip0)">
<path d="M10.0648 6.75335C10.044 6.78169 10.0214 6.80862 9.99703 6.83393L6.06181 10.7691C5.75462 11.0767 5.25629 11.077 4.94878 10.7698C4.94858 10.7696 4.94836 10.7694 4.94817 10.7692L1.01294 6.83395C0.706021 6.52617 0.70671 6.02785 1.01449 5.7209C1.03872 5.69675 1.0645 5.67419 1.09165 5.65339C1.42076 5.43274 1.86089 5.4809 2.13448 5.76751L4.31459 7.93975C4.43019 8.05522 4.52712 8.18799 4.60187 8.33327L4.70812 8.56938V0.840614C4.69319 0.438558 4.97404 0.0858145 5.36923 0.0102825C5.7983 -0.0592966 6.20254 0.232106 6.27212 0.661193C6.27943 0.706203 6.2828 0.751752 6.28221 0.797326V8.55758L6.36091 8.38836C6.4392 8.22296 6.54574 8.07249 6.67573 7.94368L8.8519 5.76751C9.1255 5.4809 9.56563 5.43274 9.89474 5.65339C10.2454 5.91018 10.3216 6.40265 10.0648 6.75335Z" fill="black"/>
</g>
<defs>
<clipPath id="clip0">
<rect width="11" height="11" fill="white" transform="matrix(1 0 0 -1 0 11)"/>
</clipPath>
</defs>
</svg>
