<svg width="16" height="16" viewBox="0 0 16 16" fill="none" xmlns="http://www.w3.org/2000/svg">
<path d="M4.00032 1.66663V0.333339C4.00032 0.197278 4.08301 0.0745613 4.20932 0.0240934C4.24966 0.00781238 4.29197 0 4.33363 0C4.42281 0 4.51006 0.0358119 4.5745 0.102873L11.9077 7.76941C12.0308 7.89831 12.0308 8.10144 11.9077 8.23034L4.5745 15.8969C4.48009 15.9952 4.33557 16.0271 4.20925 15.9757C4.08294 15.9252 4.00026 15.8025 4.00026 15.6664V14.3331C4.00026 14.2478 4.03282 14.1658 4.09141 14.1039L9.87457 7.99988L4.09144 1.89581C4.03285 1.83397 4.00032 1.75194 4.00032 1.66663Z" fill="#A2A2A2"/>
</svg>
