<svg width="24" height="24" viewBox="0 0 24 24" fill="none" xmlns="http://www.w3.org/2000/svg">
<path d="M15.6196 11.1284C17.1553 10.0084 18.1553 8.19581 18.1553 6.15384C18.1553 2.76061 15.3947 0 12.0015 0C8.60825 0 5.84764 2.76061 5.84764 6.15384C5.84764 8.19581 6.84763 10.0084 8.38334 11.1284C4.56584 12.5892 1.84766 16.2905 1.84766 20.6154C1.84766 22.4817 3.36598 24 5.23227 24H18.7707C20.637 24 22.1553 22.4817 22.1553 20.6154C22.1553 16.2905 19.4371 12.5892 15.6196 11.1284ZM7.69381 6.15384C7.69381 3.77859 9.62623 1.84617 12.0015 1.84617C14.3767 1.84617 16.3092 3.77859 16.3092 6.15384C16.3092 8.52909 14.3767 10.4616 12.0015 10.4616C9.62623 10.4616 7.69381 8.52909 7.69381 6.15384ZM18.7707 22.1538H5.23227C4.38397 22.1538 3.69383 21.4637 3.69383 20.6153C3.69383 16.0344 7.42058 12.3076 12.0015 12.3076C16.5825 12.3076 20.3092 16.0344 20.3092 20.6153C20.3092 21.4637 19.619 22.1538 18.7707 22.1538Z" fill="#333333"/>
</svg>
