<svg width="28" height="28" viewBox="0 0 28 28" fill="none" xmlns="http://www.w3.org/2000/svg">
<path d="M25.8125 24.7188C25.8125 25.3228 25.3228 25.8125 24.7188 25.8125H23.625V26.9062C23.625 27.5103 23.1353 28 22.5312 28C21.9272 28 21.4375 27.5103 21.4375 26.9062V25.8125H20.3438C19.7397 25.8125 19.25 25.3228 19.25 24.7188C19.25 24.1147 19.7397 23.625 20.3438 23.625H21.4375V22.5312C21.4375 21.9272 21.9272 21.4375 22.5312 21.4375C23.1353 21.4375 23.625 21.9272 23.625 22.5312V23.625H24.7188C25.3228 23.625 25.8125 24.1147 25.8125 24.7188ZM25.8125 7.65625V18.1562C25.8125 18.7603 25.3228 19.25 24.7188 19.25C24.1147 19.25 23.625 18.7603 23.625 18.1562V8.75H21.4375V12.0312C21.4375 12.6353 20.9478 13.125 20.3438 13.125C19.7397 13.125 19.25 12.6353 19.25 12.0312V8.75H8.75V12.0312C8.75 12.6353 8.26033 13.125 7.65625 13.125C7.05217 13.125 6.5625 12.6353 6.5625 12.0312V8.75H4.375V25.8125H15.9688C16.5728 25.8125 17.0625 26.3022 17.0625 26.9062C17.0625 27.5103 16.5728 28 15.9688 28H3.28125C2.67717 28 2.1875 27.5103 2.1875 26.9062V7.65625C2.1875 7.05217 2.67717 6.5625 3.28125 6.5625H6.61423C7.04873 2.87235 10.195 0 14 0C17.805 0 20.9513 2.87235 21.3858 6.5625H24.7188C25.3228 6.5625 25.8125 7.05217 25.8125 7.65625ZM19.1767 6.5625C18.7589 4.0827 16.5967 2.1875 14 2.1875C11.4033 2.1875 9.24115 4.0827 8.82334 6.5625H19.1767Z" fill="#333333"/>
</svg>
