<svg width="30" height="22" viewBox="0 0 30 22" fill="none" xmlns="http://www.w3.org/2000/svg">
<path d="M4.16047 2.12555L13.9301 4.5733V20.491L4.16047 18.3739V2.12555ZM2.875 0.475677V19.4135L14.2913 21.8875C14.3525 21.9029 14.4134 21.9102 14.4734 21.9102C14.8719 21.9102 15.2155 21.586 15.2155 21.1643V3.56757L2.875 0.475677Z" fill="#333333"/>
<path d="M25.1136 2.12555V18.3743L15.3441 20.4965V4.57329L25.1136 2.12555ZM26.3991 0.475677L14.0586 3.56757V21.3601C14.0586 21.6951 14.332 21.9527 14.6486 21.9527C14.6962 21.9527 14.7446 21.9471 14.793 21.9347L26.3991 19.4135V0.475677Z" fill="#333333"/>
<path d="M14.7435 21.9841L0.304688 19.9786L0.347108 2.60092L3.40824 3.32709L3.11216 4.58102L1.62829 4.22889L1.59273 18.857L14.9201 20.7078L14.7435 21.9841Z" fill="#333333"/>
<path d="M14.5261 21.9849L14.3633 20.707L27.6838 19.0034L27.6482 4.38134L26.1643 4.73347L25.8682 3.47996L28.9294 2.7538L28.9718 20.1375L14.5261 21.9849Z" fill="#333333"/>
</svg>
