<svg width="96" height="96" viewBox="0 0 96 96" fill="none" xmlns="http://www.w3.org/2000/svg">
<path d="M89.4107 74.2106H6.58936V21.7048H89.4107V74.2106ZM10.5894 70.2106H85.4107V25.7048H10.5894V70.2106Z" fill="#333333"/>
<path d="M81.3484 29.7678H14.6533V66.1465H81.3484V29.7678Z" fill="#FDC305"/>
<path d="M83.3484 68.1474H12.6533V27.7678H83.3484V68.1474V68.1474ZM16.6533 64.1474H79.3484V31.7678H16.6533V64.1474Z" fill="#333333"/>
<path d="M14.6527 18.3999H4.80029V28.2523H14.6527V18.3999Z" fill="#FDC305"/>
<path d="M16.6527 30.2523H2.80029V16.3999H16.6527V30.2523ZM6.80029 26.2523H12.6527V20.3999H6.80029V26.2523Z" fill="#333333"/>
<path d="M91.1996 19.9155H81.3472V29.768H91.1996V19.9155Z" fill="#FDC305"/>
<path d="M93.1996 31.768H79.3472V17.9155H93.1996V31.768ZM83.3472 27.768H89.1996V21.9155H83.3472V27.768Z" fill="#333333"/>
<path d="M91.1996 66.1475H81.3472V75.9999H91.1996V66.1475Z" fill="#FDC305"/>
<path d="M93.1996 77.9999H79.3472V64.1475H93.1996V77.9999ZM83.3472 73.9999H89.1996V68.1475H83.3472V73.9999Z" fill="#333333"/>
<path d="M91.1996 66.1475H81.3472V75.9999H91.1996V66.1475Z" fill="#FDC305"/>
<path d="M93.1996 77.9999H79.3472V64.1475H93.1996V77.9999ZM83.3472 73.9999H89.1996V68.1475H83.3472V73.9999Z" fill="#333333"/>
<path d="M14.6527 66.1475H4.80029V75.9999H14.6527V66.1475Z" fill="#FDC305"/>
<path d="M16.6527 77.9999H2.80029V64.1475H16.6527V77.9999ZM6.80029 73.9999H12.6527V68.1475H6.80029V73.9999Z" fill="#333333"/>
<path d="M64.346 39.895H26.0225V43.895H64.346V39.895Z" fill="#333333"/>
<path d="M48.7594 49.7476H26.0225V53.7476H48.7594V49.7476Z" fill="#333333"/>
</svg>
