<svg width="21" height="21" viewBox="0 0 21 21" fill="none" xmlns="http://www.w3.org/2000/svg">
<path d="M14.6767 0H12.4893C10.8158 0 9.61371 0.397245 8.88317 1.19147C8.15239 1.98596 7.78733 3.15603 7.78733 4.70219V6.17599C7.78733 6.56547 7.47167 6.88114 7.08218 6.88114H6.32625C5.93676 6.88114 5.62109 7.19681 5.62109 7.5863V9.79482C5.62109 10.1843 5.93676 10.5 6.32625 10.5H7.08218C7.47167 10.5 7.78733 10.8156 7.78733 11.2051V20.2948C7.78733 20.6843 8.103 21 8.49249 21H11.4273C11.8168 21 12.1325 20.6843 12.1325 20.2948V11.2052C12.1325 10.8156 12.4482 10.5 12.8376 10.5H14.3199C14.7094 10.5 15.0582 10.186 15.0991 9.79886L15.3332 7.5823C15.3741 7.19497 15.0916 6.88114 14.702 6.88114H12.8374C12.4479 6.88114 12.1323 6.56547 12.1323 6.17599V5.0717C12.1323 4.79997 12.145 4.58962 12.1706 4.44083C12.1959 4.29227 12.2533 4.14582 12.3426 4.00126C12.4317 3.85696 12.5762 3.75707 12.7758 3.7018C12.9753 3.64657 13.241 3.61884 13.5721 3.61884H14.6764C15.0659 3.61884 15.3815 3.30317 15.3815 2.91368V0.705155C15.3819 0.315668 15.0662 0 14.6767 0Z" fill="#737373"/>
</svg>
