<svg width="14" height="14" viewBox="0 0 14 14" fill="none" xmlns="http://www.w3.org/2000/svg">
<path d="M9.78319 0H8.32492C7.20922 0 6.40784 0.26483 5.92081 0.794311C5.43363 1.32397 5.19025 2.10402 5.19025 3.13479V4.11732C5.19025 4.37698 4.97981 4.58743 4.72015 4.58743H4.2162C3.95654 4.58743 3.74609 4.79787 3.74609 5.05753V6.52988C3.74609 6.78954 3.95654 6.99999 4.2162 6.99999H4.72015C4.97981 6.99999 5.19025 7.21043 5.19025 7.47009V13.5299C5.19025 13.7895 5.4007 14 5.66036 14H7.61692C7.87658 14 8.08702 13.7895 8.08702 13.5299V7.47012C8.08702 7.21043 8.2975 7.00001 8.55713 7.00001H9.54527C9.80495 7.00001 10.0375 6.79067 10.0648 6.53257L10.2208 5.05487C10.2481 4.79664 10.0597 4.58743 9.80006 4.58743H8.55697C8.29732 4.58743 8.08687 4.37698 8.08687 4.11732V3.38114C8.08687 3.19998 8.09535 3.05974 8.1124 2.96055C8.12932 2.86151 8.16755 2.76388 8.22711 2.66751C8.28649 2.57131 8.38286 2.50471 8.5159 2.46786C8.64892 2.43105 8.826 2.41256 9.04679 2.41256H9.78298C10.0426 2.41256 10.2531 2.20211 10.2531 1.94245V0.470104C10.2533 0.210446 10.0428 0 9.78319 0Z" fill="white"/>
</svg>
