<svg width="25" height="24" viewBox="0 0 25 24" fill="none" xmlns="http://www.w3.org/2000/svg">
<path d="M12.51 3.13684H11.5898L11.973 4.32143L12.51 3.13684Z" fill="white"/>
<path d="M6.67578 3.13684V4.33846L10.4042 3.13684H6.67578Z" fill="white"/>
<path d="M6.17371 2.63597H12.7352L12.9623 2.13509H5.67188V4.66204L6.17371 4.50025V2.63597Z" fill="#333333"/>
<path d="M6.67762 3.13685H10.406L11.4779 2.79149L11.5899 3.13685H12.51L12.7373 2.63597H6.17578V4.50025L6.67762 4.33847V3.13685Z" fill="#333333"/>
<path d="M5.6715 5.71464L1.29297 7.12587L6.30783 22.6272L13.1313 20.428H5.6715V5.71464Z" fill="white"/>
<path d="M6.67578 19.4263H12.1709L6.67578 16.9444V19.4263Z" fill="white"/>
<path d="M11.3557 5.67907L10.8295 4.05271L6.67578 5.39132V16.001L11.3557 5.67907Z" fill="white"/>
<path d="M6.17371 19.9272V5.5531L5.67188 5.71463V20.428H13.1317L13.8654 20.1916L13.2797 19.9272H6.17371Z" fill="white"/>
<path d="M13.2818 19.9272L12.1727 19.4263H6.67762V16.9444L6.32257 16.7841L6.67762 16.001V5.39132L6.17578 5.5531V19.9272H13.2818Z" fill="white"/>
<path d="M5.98631 23.2578L0.663064 6.80305L5.67341 5.18846V4.66203L0.03125 6.48048L5.66312 23.8884L15.2269 20.806L14.5469 20.4989L5.98631 23.2578Z" fill="#333333"/>
<path d="M11.6635 5.00037L11.9712 4.32143L11.588 3.13684H10.4042L6.67578 4.33846V4.86488L11.1529 3.42209L11.6635 5.00037Z" fill="#333333"/>
<path d="M6.17371 5.02668V4.50025L5.67188 4.66204V5.18846L6.17371 5.02668Z" fill="#333333"/>
<path d="M11.4782 2.7915L10.4062 3.13685H11.5901L11.4782 2.7915Z" fill="#333333"/>
<path d="M6.67762 4.33846L6.17578 4.50025V5.02668L6.67762 4.86489V4.33846Z" fill="#333333"/>
<path d="M13.1342 20.428L6.31074 22.6272L1.29588 7.12587L5.67441 5.71464V5.18846L0.664062 6.80305L5.98731 23.2578L14.5479 20.4989L14.3913 20.428H13.1342Z" fill="#333333"/>
<path d="M11.3557 5.67907L11.6635 5.00037L11.1529 3.4221L6.67578 4.86489V5.39131L10.8295 4.05271L11.3557 5.67907Z" fill="#333333"/>
<path d="M6.17371 5.55311V5.02668L5.67188 5.18847V5.71464L6.17371 5.55311Z" fill="#333333"/>
<path d="M14.3899 20.428L13.8665 20.1916L13.1328 20.428H14.3899Z" fill="#333333"/>
<path d="M6.67762 5.39132V4.86489L6.17578 5.02668V5.5531L6.67762 5.39132Z" fill="#333333"/>
<path d="M14.3798 1.44386L14.0664 2.13508H15.9107L14.3798 1.44386Z" fill="white"/>
<path d="M23.5099 5.56738L17.7031 2.94451V18.3749L23.5099 5.56738Z" fill="white"/>
<path d="M16.6966 18.9279V3.13684H13.6098L12.4297 5.73942L16.6966 18.9279Z" fill="white"/>
<path d="M15.9112 2.13509H14.0669L13.8398 2.63597H17.0202L15.9112 2.13509Z" fill="white"/>
<path d="M16.7807 20.4078L16.8351 20.288L16.6484 20.3482L16.7807 20.4078Z" fill="white"/>
<path d="M17.7011 18.3749V2.94451L17.1992 2.71786V19.4816L17.7011 18.3749Z" fill="white"/>
<path d="M16.6962 3.13685V18.9279L17.0096 19.8971L17.198 19.4816V2.71786L17.0169 2.63597H13.8365L13.6094 3.13685H16.6962Z" fill="white"/>
<path d="M7.65234 16.2845L14.6088 19.4263H15.8065L11.8176 7.09707L7.65234 16.2845Z" fill="white"/>
<path d="M15.2862 19.7338L15.8443 19.554L15.8031 19.4263H14.6055L15.2862 19.7338Z" fill="white"/>
<path d="M12.125 6.41837L16.3332 19.4263H16.6995V18.9279L12.4326 5.73943L12.125 6.41837Z" fill="white"/>
<path d="M16.3218 19.9272L15.9688 20.0411L16.6487 20.3482L16.8354 20.288L16.9988 19.9272H16.3218Z" fill="white"/>
<path d="M16.3314 19.4263L16.4771 19.8766L16.3203 19.9272H16.9973L17.0111 19.8971L16.6977 18.9279V19.4263H16.3314Z" fill="white"/>
<path d="M15.8053 19.4263H16.3324L12.1243 6.41837L11.8164 7.09707L15.8053 19.4263Z" fill="white"/>
<path d="M15.7148 19.9272L15.9668 20.0411L16.3198 19.9272H15.7148Z" fill="white"/>
<path d="M16.3331 19.4263H15.806L15.8471 19.554L15.2891 19.7338L15.7171 19.9272H16.3221L16.4789 19.8766L16.3331 19.4263Z" fill="white"/>
<path d="M24.8376 5.0675L13.8792 0.118034L12.9648 2.13509H13.5156L14.1296 0.780951L17.1278 2.13509H17.7027V2.39479L24.1734 5.31744L17.7027 19.5898V20.428H17.3226L17.0312 21.0707L15.9382 20.5771L15.2279 20.806L17.2814 21.7336L24.8376 5.0675Z" fill="#333333"/>
<path d="M12.202 5.03042L13.0606 3.13684H12.5096L11.9727 4.32143L12.202 5.03042Z" fill="#333333"/>
<path d="M17.7005 20.428V19.5898L17.3203 20.428H17.7005Z" fill="#333333"/>
<path d="M13.289 2.63597L13.5161 2.13509H12.9654L12.7383 2.63597H13.289Z" fill="#333333"/>
<path d="M17.6998 2.13509H17.125L17.6998 2.39479V2.13509Z" fill="#333333"/>
<path d="M13.0588 3.13685L13.2859 2.63597H12.7351L12.5078 3.13685H13.0588Z" fill="#333333"/>
<path d="M6.98491 16.5342L11.585 6.38808L11.3557 5.67908L6.67578 16.001V16.9444L12.1709 19.4263H13.3884L6.98491 16.5342Z" fill="#333333"/>
<path d="M13.2812 19.9272L13.8669 20.1916L14.5772 19.9627L14.4985 19.9272H13.2812Z" fill="#333333"/>
<path d="M12.1719 19.4263L13.2809 19.9272H14.4981L13.3893 19.4263H12.1719Z" fill="#333333"/>
<path d="M6.32031 16.7841L6.67536 16.9444V16.001L6.32031 16.7841Z" fill="#333333"/>
<path d="M15.6075 20.428H14.7664L14.5469 20.4989L15.2269 20.806L15.9372 20.5771L15.6075 20.428Z" fill="#333333"/>
<path d="M12.201 5.03043L11.9717 4.32143L11.6641 5.00038L11.8934 5.70938L12.201 5.03043Z" fill="#333333"/>
<path d="M14.7656 20.428H15.6067L15.2564 20.27L14.7656 20.428Z" fill="#333333"/>
<path d="M14.5472 20.4989L14.7668 20.428H14.3906L14.5472 20.4989Z" fill="#333333"/>
<path d="M11.8927 5.70938L11.6633 5.00038L11.3555 5.67907L11.5848 6.38807L11.8927 5.70938Z" fill="#333333"/>
<path d="M14.5775 19.9627L13.8672 20.1916L14.3906 20.428H14.7667L15.2575 20.27L14.5775 19.9627Z" fill="#333333"/>
<path d="M23.5099 5.56738L17.7031 18.3749V19.5898L24.1738 5.31744L17.7031 2.39479V2.94451L23.5099 5.56738Z" fill="#333333"/>
<path d="M14.3798 1.44387L15.9106 2.13509H17.1279L14.1296 0.780952L13.5156 2.13509H14.0664L14.3798 1.44387Z" fill="#333333"/>
<path d="M15.9375 20.5771L17.0305 21.0707L17.3218 20.428H16.3997L15.9375 20.5771Z" fill="#333333"/>
<path d="M12.4325 5.73942L13.6125 3.13684H13.0618L12.2031 5.03042L12.4325 5.73942Z" fill="#333333"/>
<path d="M17.0192 2.63597H17.2004V2.71786L17.7022 2.94451V2.39479L17.1274 2.13509H15.9102L17.0192 2.63597Z" fill="#333333"/>
<path d="M17.1989 19.4816V19.9272H17.0202L17.1083 20.1994L16.8333 20.288L16.7788 20.4078L16.6466 20.3482L16.3984 20.428H17.3206L17.7007 19.5898V18.3749L17.1989 19.4816Z" fill="#333333"/>
<path d="M13.8398 2.63597L14.0669 2.13509H13.5161L13.2891 2.63597H13.8398Z" fill="#333333"/>
<path d="M13.6094 3.13685L13.8364 2.63597H13.2857L13.0586 3.13685H13.6094Z" fill="#333333"/>
<path d="M17.0215 19.9272H17.2002V19.4816L17.0117 19.8971L17.0215 19.9272Z" fill="#333333"/>
<path d="M17.2007 2.63597H17.0195L17.2007 2.71786V2.63597Z" fill="#333333"/>
<path d="M11.8138 7.09708L11.5845 6.38808L6.98438 16.5342L13.3878 19.4263H14.605L7.64856 16.2845L11.8138 7.09708Z" fill="#333333"/>
<path d="M14.5 19.9272L14.5788 19.9627L14.6889 19.9272H14.5Z" fill="#333333"/>
<path d="M14.6078 19.4263H13.3906L14.4994 19.9272H14.6884L15.2886 19.7338L14.6078 19.4263Z" fill="#333333"/>
<path d="M15.6094 20.428L15.9391 20.5771L16.4013 20.428H15.6094Z" fill="#333333"/>
<path d="M12.1239 6.41838L12.4315 5.73943L12.2022 5.03043L11.8945 5.70938L12.1239 6.41838Z" fill="#333333"/>
<path d="M16.6482 20.3482L15.9682 20.0411L15.2578 20.27L15.6081 20.428H16.4L16.6482 20.3482Z" fill="#333333"/>
<path d="M16.8359 20.288L17.111 20.1994L17.0229 19.9272H16.9993L16.8359 20.288Z" fill="#333333"/>
<path d="M16.9961 19.9272H17.0197L17.0099 19.8971L16.9961 19.9272Z" fill="#333333"/>
<path d="M11.5859 6.38807L11.8153 7.09707L12.1232 6.41837L11.8938 5.70937L11.5859 6.38807Z" fill="#333333"/>
<path d="M14.6883 19.9272L14.5781 19.9627L15.2581 20.27L15.9685 20.0411L15.7165 19.9272H14.6883Z" fill="#333333"/>
<path d="M14.6875 19.9272H15.7158L15.2877 19.7338L14.6875 19.9272Z" fill="#333333"/>
</svg>
