<svg width="28" height="28" viewBox="0 0 28 28" fill="none" xmlns="http://www.w3.org/2000/svg">
<g clip-path="url(#clip0)">
<path d="M0.820736 4.92221H7.05901C6.77885 4.43916 6.61752 3.87895 6.61752 3.2815C6.61752 1.46913 8.10046 -0.0771354 9.93487 0.00298054C11.212 0.0583234 12.2279 0.675079 12.7955 1.7395C12.7956 1.73956 12.7956 1.73966 12.7956 1.73972L14.0002 3.99899L15.2049 1.73956C15.773 0.674204 16.7898 0.0575031 18.0683 0.0031446C19.8968 -0.075112 21.3829 1.46503 21.3829 3.28166C21.3829 3.87912 21.2216 4.43922 20.9414 4.92226H27.1797C27.6327 4.92226 28 5.28954 28 5.74256V10.6644C28 11.1174 27.6327 11.4847 27.1797 11.4847H26.3594V27.1797C26.3594 27.6328 25.9921 28 25.5391 28H2.46134C2.00831 28 1.64104 27.6328 1.64104 27.1797V11.4847H0.820736C0.367712 11.4847 0.000436783 11.1174 0.000436783 10.6644V5.74256C0.000436783 5.28943 0.367712 4.92221 0.820736 4.92221ZM9.86383 1.64199C8.97802 1.60421 8.25812 2.38792 8.25812 3.28145C8.25812 4.18613 8.99409 4.92215 9.89872 4.92215H12.6332L11.3479 2.51157C11.3479 2.51151 11.3478 2.51146 11.3478 2.51135C11.0563 1.96454 10.557 1.67207 9.86383 1.64199ZM19.7423 3.28161C19.7423 2.38546 19.0198 1.60453 18.1381 1.64221C17.4442 1.67174 16.9444 1.96415 16.6526 2.5114L15.3672 4.92221H18.1017C19.0063 4.92221 19.7423 4.18624 19.7423 3.28161ZM3.28164 26.3594H24.7188V11.4846H3.28164V26.3594ZM1.64104 9.84401H26.3594V6.56281H1.64104V9.84401Z" fill="#333333"/>
</g>
<defs>
<clipPath id="clip0">
<rect width="28" height="28" fill="white" transform="matrix(-1 0 0 1 28 0)"/>
</clipPath>
</defs>
</svg>
