<svg width="24" height="24" viewBox="0 0 24 24" fill="none"
  xmlns="http://www.w3.org/2000/svg">
  <circle cx="12.5" cy="11.5" r="7.5" fill="#333333"/>
  <path d="M12 0C5.38293 0 0 5.38293 0 12C0 18.6171 5.38293 24 12 24C18.6171 24 24 18.6171 24 12C24 5.38293 18.6171 0 12 0ZM12.9999 12.8159V15.9999C12.9999 16.552 12.553 17.0001 12 17.0001C11.447 17.0001 11.0001 16.552 11.0001 15.9999V12.8159C9.83899 12.4019 9 11.302 9 9.99994C9 8.34595 10.346 6.99994 12 6.99994C13.654 6.99994 15 8.34595 15 9.99994C15 11.302 14.161 12.4019 12.9999 12.8159Z" fill="#FDC305"/>
</svg>
