<svg width="28" height="28" viewBox="0 0 28 28" fill="none" xmlns="http://www.w3.org/2000/svg">
<circle cx="14" cy="14" r="14" fill="white"/>
<g clip-path="url(#clip0)">
<path d="M13.7998 7.00356C11.0183 7.10116 8.7076 9.27124 8.44064 12.0413C8.38611 12.5953 8.41768 13.132 8.51528 13.6458C8.51528 13.6458 8.52389 13.7061 8.55259 13.8209C8.63871 14.2056 8.76788 14.5788 8.92863 14.929C9.48837 16.2551 10.783 18.474 13.6879 20.8881C13.8658 21.0373 14.1271 21.0373 14.3079 20.8881C17.2128 18.4769 18.5074 16.258 19.07 14.9261C19.2336 14.5759 19.3599 14.2056 19.4461 13.8181C19.4719 13.7061 19.4834 13.643 19.4834 13.643C19.5494 13.2985 19.5838 12.9455 19.5838 12.5838C19.5838 9.43199 16.9746 6.89161 13.7998 7.00356ZM13.9979 15.3624C12.4995 15.3624 11.2853 14.1482 11.2853 12.6498C11.2853 11.1514 12.4995 9.93719 13.9979 9.93719C15.4963 9.93719 16.7105 11.1514 16.7105 12.6498C16.7105 14.1482 15.4963 15.3624 13.9979 15.3624Z" fill="#333333"/>
</g>
<defs>
<clipPath id="clip0">
<rect width="14" height="14" fill="white" transform="translate(7 7)"/>
</clipPath>
</defs>
</svg>
