<svg width="166" height="166" viewBox="0 0 166 166" fill="none" xmlns="http://www.w3.org/2000/svg">
<path d="M11.0669 66.4007V55.334L84.3836 11.0674L154.934 55.334V66.4007H11.0669Z" fill="white"/>
<path d="M156.086 67.5531H9.91406V54.6835L84.3958 9.71289L156.086 54.6958V67.5531ZM12.2196 65.2476H153.781V55.9715L84.3712 12.4211L12.2196 55.9838V65.2476Z" fill="#333333"/>
<path d="M41.3928 66.3994H21.814V71.3702H41.3928V66.3994Z" fill="#FDC305"/>
<path d="M42.547 72.5234H20.6611V65.2471H42.5455V72.5234H42.547ZM22.9667 70.2178H40.2399V67.5526H22.9667V70.2178Z" fill="#333333"/>
<path d="M41.3928 135.989H21.814V140.96H41.3928V135.989Z" fill="#FDC305"/>
<path d="M42.547 142.113H20.6611V134.837H42.5455V142.113H42.547ZM22.9667 139.808H40.2399V137.142H22.9667V139.808Z" fill="#333333"/>
<path d="M38.9471 71.3711H24.2622V135.99H38.9471V71.3711Z" fill="#FDC305"/>
<path d="M40.0982 137.143H23.1094V70.2188H40.0998V137.143H40.0982ZM25.4149 134.837H37.7942V72.5243H25.4149V134.837Z" fill="#333333"/>
<path d="M75.6579 66.3994H56.0791V71.3702H75.6579V66.3994Z" fill="#FDC305"/>
<path d="M76.8106 72.5234H54.9263V65.2471H76.8106V72.5234ZM57.2318 70.2178H74.505V67.5526H57.2318V70.2178Z" fill="#333333"/>
<path d="M75.6579 135.989H56.0791V140.96H75.6579V135.989Z" fill="#FDC305"/>
<path d="M76.8106 142.113H54.9263V134.837H76.8106V142.113ZM57.2318 139.808H74.505V137.142H57.2318V139.808Z" fill="#333333"/>
<path d="M73.2107 71.3711H58.5259V135.99H73.2107V71.3711Z" fill="#FDC305"/>
<path d="M74.3635 137.143H57.373V70.2188H74.3635V137.143ZM59.6786 134.837H72.0579V72.5243H59.6786V134.837Z" fill="#333333"/>
<path d="M109.922 66.3994H90.3428V71.3702H109.922V66.3994Z" fill="#FDC305"/>
<path d="M111.074 72.5234H89.1899V65.2471H111.074V72.5234ZM91.4955 70.2178H108.769V67.5526H91.4955V70.2178Z" fill="#333333"/>
<path d="M109.922 135.989H90.3428V140.96H109.922V135.989Z" fill="#FDC305"/>
<path d="M111.074 142.113H89.1899V134.837H111.074V142.113ZM91.4955 139.808H108.769V137.142H91.4955V139.808Z" fill="#333333"/>
<path d="M107.474 71.3711H92.7896V135.99H107.474V71.3711Z" fill="#FDC305"/>
<path d="M108.627 137.143H91.6367V70.2188H108.627V137.143ZM93.9423 134.837H106.322V72.5243H93.9423V134.837Z" fill="#333333"/>
<path d="M144.185 66.3994H124.606V71.3702H144.185V66.3994Z" fill="#FDC305"/>
<path d="M145.339 72.5234H123.454V65.2471H145.338V72.5234H145.339ZM125.759 70.2178H143.032V67.5526H125.759V70.2178Z" fill="#333333"/>
<path d="M144.185 135.989H124.606V140.96H144.185V135.989Z" fill="#FDC305"/>
<path d="M145.339 142.113H123.454V134.837H145.338V142.113H145.339ZM125.759 139.808H143.032V137.142H125.759V139.808Z" fill="#333333"/>
<path d="M141.74 71.3711H127.055V135.99H141.74V71.3711Z" fill="#FDC305"/>
<path d="M142.891 137.143H125.902V70.2188H142.892V137.143H142.891ZM128.207 134.837H140.587V72.5243H128.207V134.837Z" fill="#333333"/>
<path d="M149.4 140.96H16.6001V148.416H149.4V140.96Z" fill="white"/>
<path d="M150.553 149.569H15.4473V139.808H150.553V149.569ZM17.7528 147.264H148.247V142.113H17.7528V147.264Z" fill="#333333"/>
<path d="M154.934 148.017H11.0669V157.7H154.934V148.017Z" fill="white"/>
<path d="M156.086 158.853H9.91406V146.864H156.086V158.853ZM12.2196 156.548H153.781V149.17H12.2196V156.548Z" fill="#333333"/>
</svg>
