<svg width="133" height="131" viewBox="0 0 133 131" fill="none" xmlns="http://www.w3.org/2000/svg">
<g clip-path="url(#clip0)">
<path d="M65.8544 1.62207C75.9263 1.62207 85.4816 3.95788 94.1331 8.11043C95.4889 8.69438 96.8447 9.47299 98.2006 10.1867L92.3253 15.4423L83.4156 6.22881L68.1787 19.6597L59.2044 10.0569L31.2486 35.0371L49.1972 54.6969L42.2243 60.7959L59.8501 80.4557L52.8773 86.5547L78.186 114.52L93.1646 100.829L106.206 115.493C103.624 117.439 100.783 119.386 97.7486 121.138C88.387 126.393 77.6049 129.443 66.0481 129.443C30.5384 129.443 1.6787 100.764 1.6787 65.5324C1.48501 30.4304 30.3447 1.62207 65.8544 1.62207Z" fill="white"/>
<path d="M65.9835 131C29.5699 131 -2.69836e-05 101.608 -2.69836e-05 65.4676C-0.0645901 48.2734 6.64997 31.9227 18.917 19.5949C31.4422 6.94255 48.0995 0 65.8543 0C75.9262 0 85.6752 2.20604 94.7786 6.61813C96.1344 7.20208 97.4903 7.98068 98.9106 8.75929L100.912 9.86231L92.1315 17.6483L83.2864 8.49975L68.0495 21.9307L59.1398 12.3279L33.5082 35.1669L51.4568 54.8266L44.4194 60.9257L62.1097 80.5854L55.1369 86.6845L78.2505 112.184L93.2291 98.4933L108.531 115.687L107.11 116.726C104.011 119.061 101.17 120.943 98.4587 122.435C88.5806 128.08 77.3466 131 65.9835 131ZM65.8543 3.24418C48.9388 3.24418 33.1208 9.86231 21.1767 21.8658C9.55531 33.6097 3.16356 49.1169 3.22813 65.4676C3.22813 99.8559 31.3776 127.821 65.9835 127.821C76.7655 127.821 87.483 125.031 96.9092 119.71C99.1043 118.477 101.364 117.05 103.817 115.233L93.0354 103.165L78.0568 116.79L50.5529 86.425L57.5257 80.3259L39.8354 60.6662L46.8082 54.5671L28.9242 34.9723L59.3335 7.78603L68.3077 17.4537L82.0597 5.38534C76.7655 3.9579 71.4068 3.24418 65.8543 3.24418ZM85.9335 6.48836L92.3898 13.1714L95.3597 10.5111C94.714 10.1867 94.0684 9.86231 93.4874 9.60277C90.9694 8.36999 88.4514 7.33185 85.9335 6.48836Z" fill="#333333"/>
<path d="M54.0391 61.5742L69.4051 47.8838L83.157 63.1314L67.791 76.8219L54.0391 61.5742Z" fill="#FDC305"/>
<path d="M67.7264 79.0932L51.7793 61.4449L69.5342 45.6133L85.4812 63.2616L67.7264 79.0932ZM56.3633 61.6395L67.9846 74.4865L80.8973 62.9372L69.2759 50.0902L56.3633 61.6395Z" fill="#333333"/>
<path d="M65.0151 87.9169L80.252 74.0967L94.1331 89.3443L78.7671 103.035L65.0151 87.9169Z" fill="#FDC305"/>
<path d="M78.638 105.306L62.6909 87.7875L80.3166 71.8262L96.3929 89.4745L78.638 105.306ZM67.2749 88.0471L78.8317 100.764L91.7443 89.215L80.0584 76.368L67.2749 88.0471Z" fill="#333333"/>
<path d="M43.1284 35.5557L58.4944 21.8652L72.2464 37.1129L56.8804 50.8033L43.1284 35.5557Z" fill="#FDC305"/>
<path d="M56.7512 53.0747L40.8687 35.4263L58.6235 19.5947L74.5706 37.2431L56.7512 53.0747ZM45.4526 35.6859L57.0094 48.5328L69.9221 36.9835L58.3007 24.1366L45.4526 35.6859Z" fill="#333333"/>
<path d="M71.2778 28.2243L82.7055 17.9727L93.0356 29.3273L81.6079 39.7087L71.2778 28.2243Z" fill="#FDC305"/>
<path d="M81.4787 41.98L69.0181 28.0949L82.8346 15.7021L95.2953 29.4575L81.4787 41.98ZM73.5375 28.3545L81.6724 37.4382L90.7113 29.2628L82.5763 20.3089L73.5375 28.3545Z" fill="#333333"/>
<path d="M91.6797 75.1999L103.107 64.9482L113.373 76.4326L101.945 86.6843L91.6797 75.1999Z" fill="#FDC305"/>
<path d="M101.881 88.9556L89.4199 75.0705L103.236 62.6777L115.697 76.5628L101.881 88.9556ZM93.9393 75.33L102.074 84.4137L111.113 76.3033L102.978 67.2196L93.9393 75.33Z" fill="#333333"/>
<path d="M101.751 98.2985L113.179 88.0469L123.445 99.4015L112.017 109.718L101.751 98.2985Z" fill="#FDC305"/>
<path d="M111.952 112.054L99.4272 98.1691L113.244 85.7764L125.704 99.5317L111.952 112.054ZM104.011 98.4287L112.146 107.512L121.185 99.3371L113.05 90.3831L104.011 98.4287Z" fill="#333333"/>
<path d="M106.4 45.5481L114.018 38.7354L120.862 46.2619L113.244 53.1395L106.4 45.5481Z" fill="#FDC305"/>
<path d="M113.179 55.4103L104.14 45.4182L114.147 36.3994L123.186 46.3915L113.179 55.4103ZM108.66 45.6778L113.373 50.8685L118.602 46.1968L113.889 41.0062L108.66 45.6778Z" fill="#333333"/>
<path d="M96.5864 22.9679L104.205 16.0254L111.049 23.6817L103.43 30.5593L96.5864 22.9679Z" fill="#FDC305"/>
<path d="M103.301 32.8307L94.2622 22.9035L104.269 13.7549L113.308 23.8767L103.301 32.8307ZM98.8462 23.0981L103.559 28.2888L108.789 23.6172L104.076 18.3616L98.8462 23.0981Z" fill="#333333"/>
<path d="M116.084 68.1272L123.703 61.3145L130.74 68.841L122.993 75.7186L116.084 68.1272Z" fill="#FDC305"/>
<path d="M122.864 77.99L113.825 68.0628L123.832 59.0439L133.065 68.9711L122.864 77.99ZM118.409 68.2574L123.122 73.4481L128.416 68.7765L123.638 63.5858L118.409 68.2574Z" fill="#333333"/>
<path d="M81.8013 51.193L93.2289 40.9414L103.559 52.296L92.1314 62.5476L81.8013 51.193Z" fill="#FDC305"/>
<path d="M92.0667 64.819L79.5415 51.0637L93.358 38.6709L105.883 52.3613L92.0667 64.819ZM84.1255 51.2583L92.2604 60.2123L101.299 52.1018L93.1643 43.1479L84.1255 51.2583Z" fill="#333333"/>
</g>
<defs>
<clipPath id="clip0">
<rect width="133" height="131" fill="white"/>
</clipPath>
</defs>
</svg>
