<svg width="166" height="166" viewBox="0 0 166 166" fill="none" xmlns="http://www.w3.org/2000/svg">
<path d="M134.933 30.4346H7.75732V157.611H134.933V30.4346ZM110.476 136.333H30.879V53.5578H110.476V136.333Z" fill="white"/>
<path d="M5.5332 28.2119V159.835H137.156V28.2119H5.5332ZM136.045 158.722H6.64448V29.3232H136.045V158.722Z" fill="#333333"/>
<path d="M6.64453 158.722H136.045V29.3232H6.64453V158.722ZM7.75735 30.4345H134.933V157.611H7.75735V30.4345Z" fill="#333333"/>
<path d="M30.8789 136.333H110.476V53.5576H30.8789V136.333ZM31.9917 54.6689H109.365V135.222H31.9917V54.6689Z" fill="#333333"/>
<path d="M158.945 7.75684H31.7686V134.933H158.945V7.75684ZM134.487 113.656H54.8917V30.8785H134.489V113.656H134.487Z" fill="#FDC305"/>
<path d="M29.5444 5.5332V137.156H161.167V5.5332H29.5444ZM160.056 136.045H30.6572V6.64448H160.057V136.045H160.056Z" fill="#333333"/>
<path d="M30.6572 136.045H160.057V6.64453H30.6572V136.045ZM31.7685 7.75735H158.944V134.933H31.7685V7.75735Z" fill="#333333"/>
<path d="M54.8916 113.656H134.489V30.8789H54.8916V113.656ZM56.0029 31.9917H133.376V112.545H56.0029V31.9917Z" fill="#333333"/>
</svg>
