<svg width="34" height="34" viewBox="0 0 34 34" fill="none" xmlns="http://www.w3.org/2000/svg">
<g clip-path="url(#clip0)">
<path d="M32.9035 19.2799C32.4906 18.4435 32.0643 17.5788 32.0643 17.0002C32.0643 16.4217 32.4906 15.5569 32.9021 14.7213C33.6103 13.2829 34.4134 11.6527 33.7526 10.0599C33.0692 8.41267 31.3093 7.82133 29.7563 7.3001C28.9433 7.02745 28.0219 6.71796 27.6508 6.34758C27.2818 5.97861 26.9724 5.05725 26.6997 4.24495C26.1792 2.69188 25.5886 0.931303 23.9406 0.247895C22.3471 -0.412851 20.7176 0.390242 19.28 1.09773C18.4436 1.5099 17.5789 1.93552 16.9989 1.93552C16.4203 1.93552 15.5556 1.5099 14.7199 1.09844C13.2822 0.390242 11.6506 -0.412143 10.0585 0.247895C8.41128 0.931303 7.82065 2.69188 7.29942 4.24495C7.02605 5.05725 6.71728 5.97861 6.3469 6.34829C5.97793 6.71867 5.05586 7.02745 4.24285 7.30081C2.69048 7.82204 0.929912 8.41338 0.245795 10.0599C-0.41495 11.6534 0.388851 13.2829 1.09775 14.722C1.50992 15.5584 1.93626 16.4224 1.93626 17.001C1.93626 17.5796 1.50992 18.4443 1.09846 19.2806C0.391684 20.7183 -0.411409 22.3478 0.249336 23.9406C0.932745 25.5885 2.69261 26.1799 4.24639 26.7011C5.05869 26.9738 5.98005 27.2832 6.34973 27.6522C6.71941 28.0226 7.02889 28.944 7.30225 29.757C7.82277 31.31 8.41412 33.0699 10.0614 33.7533C10.4792 33.9261 10.8992 33.9991 11.317 33.9991C12.4947 33.9991 13.6611 33.4247 14.722 32.9028C15.5577 32.4906 16.4217 32.065 17.001 32.065C17.5803 32.065 18.445 32.4913 19.2814 32.9028C20.7197 33.611 22.35 34.4133 23.9406 33.7533C25.5878 33.0706 26.1792 31.31 26.7004 29.757C26.9738 28.944 27.2833 28.0226 27.6536 27.6522C28.0233 27.2825 28.9447 26.9738 29.757 26.7004C31.3101 26.1792 33.0706 25.5885 33.754 23.9413C34.4148 22.3485 33.6117 20.7183 32.9035 19.2799ZM30.3604 20.5313C30.7591 21.3408 31.3051 22.4484 31.1358 22.8556C30.946 23.3131 29.7372 23.7189 28.8547 24.0149C27.6919 24.4051 26.4901 24.8088 25.6502 25.6494C24.8088 26.4901 24.4052 27.6926 24.0149 28.8547C23.7182 29.7378 23.3124 30.9467 22.8549 31.1358C22.4435 31.3065 21.3394 30.7584 20.532 30.3611C19.4046 29.8058 18.2396 29.2315 17.0003 29.2315C15.7616 29.2315 14.596 29.8058 13.4699 30.3603C12.6612 30.7591 11.5571 31.3065 11.1456 31.1358C10.6888 30.9467 10.283 29.7378 9.98702 28.8554C9.5968 27.6926 9.19313 26.4901 8.3518 25.6487C7.51117 24.8088 6.31007 24.4058 5.14792 24.0149C4.26551 23.7189 3.05591 23.3124 2.86612 22.8542C2.69686 22.447 3.24288 21.3394 3.64159 20.5306C4.19682 19.4039 4.77116 18.2382 4.77116 16.9995C4.77116 15.7609 4.19611 14.5952 3.64088 13.4685C3.24217 12.6597 2.69615 11.5514 2.86399 11.1456C3.0545 10.6881 4.26339 10.2816 5.1465 9.98558C6.30936 9.59465 7.51188 9.19098 8.3518 8.35035C9.19242 7.51043 9.59539 6.30863 9.98631 5.14577C10.2823 4.26265 10.6888 3.05306 11.1456 2.86397C11.198 2.84201 11.2618 2.83281 11.3347 2.83281C11.8326 2.83281 12.7653 3.29172 13.4706 3.63944C14.5981 4.19467 15.7631 4.7683 17.001 4.7683C18.2396 4.7683 19.406 4.19396 20.5327 3.63944C21.3422 3.24144 22.447 2.69471 22.8563 2.86468C23.3138 3.05447 23.7196 4.26336 24.0156 5.14648C24.4059 6.30934 24.8088 7.51114 25.6495 8.35177C26.4908 9.1924 27.6926 9.59607 28.8555 9.98628C29.7379 10.2823 30.9468 10.6888 31.1366 11.1463C31.3058 11.5535 30.7605 12.6618 30.3611 13.4706C29.8066 14.5973 29.2322 15.763 29.2322 17.001C29.2315 18.2389 29.8059 19.4046 30.3604 20.5313Z" fill="white"/>
<path d="M23.5323 10.4636C22.9792 9.91046 22.0819 9.91046 21.5288 10.4643L10.4689 21.5334C9.9165 22.0865 9.9165 22.9837 10.4696 23.5361C10.7465 23.813 11.1084 23.9504 11.471 23.9504C11.8336 23.9504 12.1962 23.8123 12.4731 23.5354L23.533 12.4663C24.0854 11.9125 24.0854 11.016 23.5323 10.4636Z" fill="white"/>
<path d="M12.0349 9.00342C9.93295 9.00342 8.22266 10.7137 8.22266 12.8156C8.22266 14.9183 9.93295 16.6285 12.0349 16.6285C14.1368 16.6285 15.8464 14.9183 15.8464 12.8156C15.8464 10.7137 14.1368 9.00342 12.0349 9.00342ZM12.0349 13.7958C11.4952 13.7958 11.0554 13.356 11.0554 12.8156C11.0554 12.2753 11.4945 11.8362 12.0349 11.8362C12.5745 11.8362 13.0136 12.276 13.0136 12.8156C13.0136 13.356 12.5745 13.7958 12.0349 13.7958Z" fill="white"/>
<path d="M21.9638 17.3706C19.8619 17.3706 18.1523 19.0816 18.1523 21.1842C18.1523 23.2861 19.8619 24.9957 21.9638 24.9957C24.0658 24.9957 25.776 23.2854 25.776 21.1842C25.776 19.0809 24.0658 17.3706 21.9638 17.3706ZM21.9638 22.163C21.4242 22.163 20.9851 21.7239 20.9851 21.1842C20.9851 20.6432 21.4242 20.2034 21.9638 20.2034C22.5042 20.2034 22.9433 20.6432 22.9433 21.1842C22.9433 21.7239 22.5035 22.163 21.9638 22.163Z" fill="white"/>
</g>
<defs>
<clipPath id="clip0">
<rect width="34" height="34" fill="white"/>
</clipPath>
</defs>
</svg>
