<svg width="14" height="14" viewBox="0 0 14 14" fill="none" xmlns="http://www.w3.org/2000/svg">
<g clip-path="url(#clip0)">
<path d="M12.063 9.744C11.2173 9.02065 10.359 8.58248 9.52363 9.30474L9.02482 9.74127C8.65986 10.0581 7.98131 11.5387 5.35778 8.52074C2.73479 5.50658 4.29569 5.03727 4.66119 4.72313L5.16273 4.28605C5.99372 3.56215 5.68012 2.65085 5.08078 1.71278L4.7191 1.14459C4.11704 0.208706 3.46143 -0.405928 2.62826 0.316881L2.17807 0.710247C1.80984 0.978501 0.780529 1.85046 0.530851 3.50697C0.230363 5.49456 1.17827 7.77062 3.34997 10.2679C5.51895 12.7664 7.64258 14.0213 9.65421 13.9995C11.326 13.9814 12.3356 13.0843 12.6514 12.7582L13.1033 12.3643C13.9342 11.642 13.418 10.9066 12.5717 10.1816L12.063 9.744Z" fill="#FDC305"/>
</g>
<defs>
<clipPath id="clip0">
<rect width="14" height="14" fill="white"/>
</clipPath>
</defs>
</svg>
