<svg width="21" height="20" viewBox="0 0 21 20" fill="none" xmlns="http://www.w3.org/2000/svg">
<path d="M16.725 2.45591C15.0621 0.872191 12.8511 0 10.4995 0C8.14787 0 5.93696 0.872152 4.27397 2.45591C2.61111 4.03959 1.69531 6.14514 1.69531 8.3848C1.69531 10.6245 2.61111 12.7301 4.27397 14.3138L10.0645 19.8284C10.1846 19.9429 10.3421 20 10.4995 20C10.657 20 10.8144 19.9428 10.9345 19.8284L16.7248 14.3138C18.3878 12.7301 19.3035 10.6245 19.3036 8.38484C19.3035 6.1451 18.3878 4.03955 16.725 2.45591ZM13.2645 11.018C12.5259 11.7214 11.544 12.1088 10.4996 12.1088C9.45509 12.1088 8.47317 11.7214 7.73468 11.0181C6.99611 10.3147 6.5894 9.37953 6.5894 8.3848C6.5894 7.39011 6.99611 6.45495 7.73468 5.75155C8.47317 5.04818 9.45509 4.66084 10.4996 4.66084C11.544 4.66084 12.5259 5.04818 13.2645 5.75155C14.003 6.45487 14.4098 7.39003 14.4098 8.38476C14.4097 9.37949 14.003 10.3147 13.2645 11.018Z" fill="#333333"/>
</svg>
