<svg width="22" height="22" viewBox="0 0 22 22" fill="none" xmlns="http://www.w3.org/2000/svg">
<circle cx="11" cy="11" r="11" fill="#FDC305"/>
<g clip-path="url(#clip0)">
<path d="M15.0886 10.0873H11.9092V6.91053C11.9092 6.40769 11.5035 6 11.0007 6C10.4978 6 10.0923 6.40769 10.0923 6.91075V10.0895H6.91141C6.40857 10.0895 5.99978 10.4972 6 11.0002C5.99978 11.2515 6.10132 11.4819 6.26585 11.6464C6.4306 11.8114 6.6579 11.9156 6.90899 11.9156H10.0923V15.0899C10.0923 15.3414 10.1921 15.5692 10.3569 15.7335C10.5216 15.8982 10.7482 16.0002 10.9998 16.0002C11.5024 16.0002 11.9092 15.5925 11.9092 15.0899V11.9154H15.0886C15.5914 11.9154 15.9991 11.5042 15.9989 11.0013C15.9987 10.4987 15.591 10.0873 15.0886 10.0873Z" fill="#333333"/>
</g>
<defs>
<clipPath id="clip0">
<rect width="10" height="10" fill="white" transform="translate(6 6)"/>
</clipPath>
</defs>
</svg>
