<svg width="16" height="16" viewBox="0 0 16 16" fill="none" xmlns="http://www.w3.org/2000/svg">
<path d="M15.7442 7.37801L9.96608 1.59972C9.80114 1.43477 9.5813 1.34424 9.3469 1.34424C9.11223 1.34424 8.89253 1.4349 8.72759 1.59972L8.20297 2.12446C8.03816 2.28914 7.94737 2.50911 7.94737 2.74364C7.94737 2.97805 8.03816 3.20543 8.20297 3.37011L11.5739 6.74842H0.864381C0.381525 6.74842 0 7.12644 0 7.60942V8.35127C0 8.83426 0.381525 9.25039 0.864381 9.25039H11.6121L8.2031 12.6476C8.03829 12.8125 7.9475 13.0265 7.9475 13.261C7.9475 13.4953 8.03829 13.7124 8.2031 13.8772L8.72772 14.4003C8.89266 14.5652 9.11236 14.6551 9.34703 14.6551C9.58143 14.6551 9.80126 14.564 9.96621 14.3991L15.7444 8.62093C15.9097 8.45546 16.0006 8.23459 16 7.99979C16.0005 7.76422 15.9097 7.54321 15.7442 7.37801Z" fill="#333333"/>
</svg>
