<svg width="26" height="24" viewBox="0 0 26 24" fill="none" xmlns="http://www.w3.org/2000/svg">
<g clip-path="url(#clip0)">
<path d="M23.6278 23.9333H3.12109V2.70667H23.6278V23.9333ZM4.18776 22.8667H22.5611V3.77333H4.18776V22.8667Z" fill="black"/>
<path d="M2.93563 1.07999C1.87536 1.07999 1.01562 1.93973 1.01562 2.99999V21H4.85563V2.99999C4.85563 1.93973 3.99589 1.07999 2.93563 1.07999Z" fill="white"/>
<path d="M5.38714 21.5333H0.480469V2.99999C0.480469 1.64719 1.581 0.546661 2.9338 0.546661C4.2866 0.546661 5.38714 1.64719 5.38714 2.99999V21.5333ZM1.54714 20.4667H4.32047V2.99999C4.32047 2.23546 3.69834 1.61333 2.9338 1.61333C2.16927 1.61333 1.54714 2.23546 1.54714 2.99999V20.4667Z" fill="black"/>
<path d="M2.93563 23.4C3.99601 23.4 4.85563 22.5404 4.85563 21.48C4.85563 20.4196 3.99601 19.56 2.93563 19.56C1.87524 19.56 1.01562 20.4196 1.01562 21.48C1.01562 22.5404 1.87524 23.4 2.93563 23.4Z" fill="white"/>
<path d="M2.9338 23.9333C1.581 23.9333 0.480469 22.8328 0.480469 21.48C0.480469 20.1272 1.581 19.0267 2.9338 19.0267C4.2866 19.0267 5.38714 20.1272 5.38714 21.48C5.38714 22.8328 4.2866 23.9333 2.9338 23.9333ZM2.9338 20.0933C2.16927 20.0933 1.54714 20.7155 1.54714 21.48C1.54714 22.2445 2.16927 22.8667 2.9338 22.8667C3.69834 22.8667 4.32047 22.2445 4.32047 21.48C4.32047 20.7155 3.69834 20.0933 2.9338 20.0933Z" fill="black"/>
<path d="M23.3341 1.07999C24.3943 1.07999 25.2541 1.93973 25.2541 2.99999V21H21.4141V2.99999C21.4141 1.93973 22.2738 1.07999 23.3341 1.07999Z" fill="white"/>
<path d="M25.7856 21.5333H20.8789V2.99999C20.8789 1.64719 21.9794 0.546661 23.3322 0.546661C24.685 0.546661 25.7856 1.64719 25.7856 2.99999V21.5333ZM21.9456 20.4667H24.7189V2.99999C24.7189 2.23546 24.0968 1.61333 23.3322 1.61333C22.5677 1.61333 21.9456 2.23546 21.9456 2.99999V20.4667Z" fill="black"/>
<path d="M23.3341 23.4C24.3944 23.4 25.2541 22.5404 25.2541 21.48C25.2541 20.4196 24.3944 19.56 23.3341 19.56C22.2737 19.56 21.4141 20.4196 21.4141 21.48C21.4141 22.5404 22.2737 23.4 23.3341 23.4Z" fill="white"/>
<path d="M23.3322 23.9333C21.9794 23.9333 20.8789 22.8328 20.8789 21.48C20.8789 20.1272 21.9794 19.0267 23.3322 19.0267C24.685 19.0267 25.7856 20.1272 25.7856 21.48C25.7856 22.8328 24.685 23.9333 23.3322 23.9333ZM23.3322 20.0933C22.5677 20.0933 21.9456 20.7155 21.9456 21.48C21.9456 22.2445 22.5677 22.8667 23.3322 22.8667C24.0968 22.8667 24.7189 22.2445 24.7189 21.48C24.7189 20.7155 24.0968 20.0933 23.3322 20.0933Z" fill="black"/>
</g>
<defs>
<clipPath id="clip0">
<rect width="25.8" height="24" fill="white"/>
</clipPath>
</defs>
</svg>
