<svg width="27" height="27" viewBox="0 0 27 27" fill="none" xmlns="http://www.w3.org/2000/svg">
<g clip-path="url(#clip0)">
<path d="M17.2848 24.0332C13.7699 25.5106 9.69579 24.7994 6.87933 22.2083C9.25848 19.6882 7.48734 15.4924 3.98387 15.4924C1.78714 15.4924 0 17.2796 0 19.4763C0 22.1795 2.65319 24.1083 5.22725 23.2604C8.60662 26.6497 13.6822 27.6128 18.0226 25.7884C18.5073 25.5847 18.735 25.0266 18.5313 24.5419C18.3276 24.0572 17.7696 23.8295 17.2848 24.0332ZM1.90394 19.4763C1.90394 18.3294 2.83698 17.3964 3.98387 17.3964C5.13069 17.3964 6.0638 18.3294 6.0638 19.4763C6.0638 20.6231 5.13075 21.5562 3.98387 21.5562C2.83698 21.5562 1.90394 20.6231 1.90394 19.4763Z" fill="#333333"/>
<path d="M3.09165 12.2442C3.58762 12.4246 4.13262 12.1672 4.31171 11.6751C5.25981 9.06869 7.31493 6.96318 9.87644 5.93672C10.505 7.31214 11.8928 8.27071 13.5011 8.27071C15.6978 8.27071 17.485 6.48357 17.485 4.28684C17.485 2.09018 15.6978 0.302979 13.5011 0.302979C11.3899 0.302979 9.6579 1.95405 9.52623 4.03261C6.26664 5.21459 3.69894 7.79002 2.52243 11.0242C2.34275 11.5183 2.59758 12.0645 3.09165 12.2442ZM13.5011 2.20691C14.6479 2.20691 15.581 3.13996 15.581 4.28684C15.581 5.43373 14.648 6.36677 13.5011 6.36677C12.3542 6.36677 11.4212 5.43373 11.4212 4.28684C11.4212 3.13996 12.3543 2.20691 13.5011 2.20691Z" fill="#333333"/>
<path d="M25.1288 16.0993C25.1624 15.9105 25.1823 15.3028 25.1823 15.0173C25.1823 11.7169 23.776 8.5554 21.324 6.34327C20.9336 5.99116 20.3317 6.02204 19.9794 6.4124C19.6273 6.80277 19.6582 7.40471 20.0486 7.75694C22.1959 9.69425 23.4108 12.525 23.266 15.5009C20.9518 15.3585 19.0352 17.2046 19.0352 19.4764C19.0352 21.673 20.8223 23.4602 23.019 23.4602C25.2158 23.4602 27.0029 21.6731 27.0029 19.4764C27.003 18.0541 26.2532 16.8043 25.1288 16.0993ZM23.0191 21.5562C21.8723 21.5562 20.9392 20.6232 20.9392 19.4763C20.9392 18.3294 21.8722 17.3964 23.0191 17.3964C24.166 17.3964 25.099 18.3294 25.099 19.4763C25.099 20.6232 24.166 21.5562 23.0191 21.5562Z" fill="#333333"/>
</g>
<defs>
<clipPath id="clip0">
<rect width="27" height="27" fill="white"/>
</clipPath>
</defs>
</svg>
