<svg width="24" height="24" viewBox="0 0 24 24" fill="none" xmlns="http://www.w3.org/2000/svg">
<path d="M16.8008 0H7.20078C5.87759 0 4.80078 1.07681 4.80078 2.4V21.6C4.80078 22.9232 5.87759 24 7.20078 24H16.8008C18.124 24 19.2008 22.9232 19.2008 21.6V2.4C19.2008 1.07681 18.124 0 16.8008 0ZM18.0008 21.6C18.0008 22.2628 17.4636 22.8 16.8008 22.8H7.20078C6.53797 22.8 6.00078 22.2628 6.00078 21.6V2.4C6.00078 1.73719 6.53797 1.2 7.20078 1.2H16.8008C17.4636 1.2 18.0008 1.73719 18.0008 2.4V21.6Z" fill="#C4C4C4"/>
<path d="M12.0008 22.0001C12.6635 22.0001 13.2008 21.4628 13.2008 20.8001C13.2008 20.1374 12.6635 19.6001 12.0008 19.6001C11.338 19.6001 10.8008 20.1374 10.8008 20.8001C10.8008 21.4628 11.338 22.0001 12.0008 22.0001Z" fill="#C4C4C4"/>
</svg>
