<svg width="20" height="20" viewBox="0 0 20 20" fill="none" xmlns="http://www.w3.org/2000/svg">
<path d="M9.30657 0.884099C9.43731 0.620044 9.70654 0.452637 10.0008 0.452637C10.2951 0.452637 10.5647 0.620044 10.695 0.884099L13.185 5.93005C13.2976 6.15829 13.5159 6.31664 13.7683 6.35331L19.3368 7.16231C19.6289 7.20459 19.8705 7.4091 19.9615 7.68912C20.0526 7.96914 19.9766 8.2772 19.7656 8.48258L15.7367 12.4106C15.5541 12.5884 15.4709 12.8447 15.5136 13.0958L16.4645 18.6422C16.5137 18.933 16.3951 19.2264 16.156 19.3999C15.9174 19.5725 15.602 19.5953 15.3406 19.459L10.3598 16.84C10.1345 16.7214 9.86488 16.7214 9.63923 16.84L4.65843 19.4585C4.39783 19.5953 4.08156 19.5729 3.84297 19.3999C3.60437 19.2269 3.48528 18.933 3.5349 18.6422L4.48585 13.0958C4.52899 12.8447 4.44529 12.5884 4.26278 12.4106L0.233784 8.48258C0.0227994 8.27677 -0.053138 7.96914 0.0379005 7.68912C0.128939 7.4091 0.370989 7.20459 0.663089 7.16231L6.2324 6.35331C6.48438 6.31664 6.7027 6.15829 6.81531 5.92962L9.30657 0.884099Z" fill="#FDC305"/>
</svg>
