<svg width="85" height="85" viewBox="0 0 85 85" fill="none" xmlns="http://www.w3.org/2000/svg">
<path d="M38.25 14.875H4.25V37.5417H38.25V14.875Z" fill="#FDC305"/>
<path d="M38.2502 14.8749V37.5416H4.25016V14.8749H38.2502ZM41.7918 11.3333H38.2502H4.25016H0.708496V14.8749V37.5416V41.0833H4.25016H38.2502H41.7918V37.5416V14.8749V11.3333Z" fill="#333333"/>
<path d="M38.25 46.0417H4.25V68.7084H38.25V46.0417Z" fill="white"/>
<path d="M38.2502 46.0417V68.7083H4.25016V46.0417H38.2502ZM41.7918 42.5H38.2502H4.25016H0.708496V46.0417V68.7083V72.25H4.25016H38.2502H41.7918V68.7083V46.0417V42.5Z" fill="#333333"/>
<path d="M80.75 46.0417H46.75V68.7084H80.75V46.0417Z" fill="#FDC305"/>
<path d="M80.7502 46.0417V68.7083H46.7502V46.0417H80.7502ZM84.2918 42.5H80.7502H46.7502H43.2085V46.0417V68.7083V72.25H46.7502H80.7502H84.2918V68.7083V46.0417V42.5Z" fill="#333333"/>
<path d="M80.75 14.875H46.75V37.5417H80.75V14.875Z" fill="white"/>
<path d="M80.7502 14.8749V37.5416H46.7502V14.8749H80.7502ZM84.2918 11.3333H80.7502H46.7502H43.2085V14.8749V37.5416V41.0833H46.7502H80.7502H84.2918V37.5416V14.8749V11.3333Z" fill="#333333"/>
</svg>
