<svg width="14" height="14" viewBox="0 0 14 14" fill="none" xmlns="http://www.w3.org/2000/svg">
<g clip-path="url(#clip0)">
<path d="M5.22296 12.7431C4.61755 12.7431 3.99441 12.6941 3.36754 12.5958C2.26343 12.4226 1.14576 11.845 0.829495 11.6721L0 11.2186L0.898068 10.9232C1.87977 10.6005 2.47695 10.4002 3.21619 10.0866C2.47599 9.72814 1.90551 9.08331 1.6309 8.24976L1.42198 7.61551L1.5933 7.64168C1.43084 7.47794 1.30256 7.31174 1.20312 7.1606C0.849469 6.62344 0.662229 5.96709 0.702069 5.40462L0.741376 4.85101L1.07281 4.9794C0.932995 4.71536 0.831952 4.43338 0.772565 4.13783C0.627836 3.41707 0.748959 2.65134 1.11372 1.98173L1.40243 1.45174L1.78855 1.91551C3.00972 3.38246 4.55645 4.25265 6.39222 4.5074C6.31724 3.99054 6.37342 3.49173 6.55938 3.04462C6.77588 2.52402 7.16104 2.08256 7.67288 1.7679C8.24133 1.41852 8.93069 1.24922 9.61396 1.2912C10.3389 1.33574 10.9971 1.60736 11.5198 2.07722C11.7751 2.01089 11.9632 1.94008 12.2174 1.84438C12.3703 1.7868 12.5438 1.72144 12.7608 1.64667L13.5606 1.37109L13.0391 2.86069C13.0735 2.8578 13.1089 2.85535 13.146 2.85374L14.0001 2.81508L13.4953 3.50497C13.4663 3.54449 13.4589 3.55571 13.4487 3.5712C13.408 3.63251 13.3574 3.70877 12.6645 4.63397C12.491 4.86565 12.4044 5.16739 12.4205 5.48376C12.4819 6.68604 12.3344 7.7738 11.9819 8.71674C11.6484 9.60883 11.1316 10.3742 10.4461 10.9917C9.59783 11.7556 8.51616 12.2787 7.231 12.5461C6.60061 12.6773 5.92364 12.7431 5.22296 12.7431Z" fill="white"/>
</g>
<defs>
<clipPath id="clip0">
<rect width="14" height="14" fill="white"/>
</clipPath>
</defs>
</svg>
