<svg width="14" height="14" viewBox="0 0 14 14" fill="none" xmlns="http://www.w3.org/2000/svg">
<g clip-path="url(#clip0)">
<path d="M13.8752 10.131C13.8376 10.068 13.6048 9.56217 12.4847 8.52259C11.3122 7.43401 11.4697 7.61077 12.882 5.72851C13.7422 4.58217 14.0861 3.88212 13.9785 3.58285C13.8761 3.29757 13.2434 3.37283 13.2434 3.37283L11.1398 3.38508C11.1398 3.38508 10.984 3.36408 10.8676 3.43321C10.7547 3.50146 10.6821 3.65898 10.6821 3.65898C10.6821 3.65898 10.3487 4.54629 9.90418 5.3006C8.96699 6.89234 8.59158 6.97635 8.43845 6.87747C8.0823 6.64732 8.17155 5.95165 8.17155 5.45811C8.17155 3.91537 8.40519 3.2722 7.71564 3.10594C7.48638 3.05081 7.31836 3.01405 6.73294 3.00793C5.98214 3.00005 5.34597 3.01055 4.98632 3.18644C4.74655 3.3037 4.56191 3.56534 4.67479 3.58022C4.81393 3.5986 5.12895 3.6651 5.29609 3.89262C5.51223 4.18577 5.50435 4.84556 5.50435 4.84556C5.50435 4.84556 5.62861 6.66132 5.21471 6.88709C4.93031 7.04198 4.54091 6.72608 3.70522 5.28135C3.27731 4.54192 2.95354 3.72373 2.95354 3.72373C2.95354 3.72373 2.89141 3.57147 2.78028 3.49009C2.64552 3.39121 2.4565 3.3597 2.4565 3.3597L0.456104 3.37195C0.456104 3.37195 0.155957 3.38071 0.0456987 3.51109C-0.0523085 3.62747 0.0378232 3.86724 0.0378232 3.86724C0.0378232 3.86724 1.60419 7.53114 3.37707 9.3784C5.00382 11.0717 6.8502 10.9605 6.8502 10.9605H7.68677C7.68677 10.9605 7.93966 10.9325 8.06829 10.7934C8.1873 10.6656 8.18293 10.4259 8.18293 10.4259C8.18293 10.4259 8.1663 9.30315 8.68784 9.13776C9.2015 8.975 9.8613 10.2228 10.5605 10.7033C11.089 11.0664 11.4907 10.9868 11.4907 10.9868L13.3607 10.9605C13.3607 10.9605 14.339 10.9001 13.8752 10.131Z" fill="white"/>
</g>
<defs>
<clipPath id="clip0">
<rect width="14" height="14" fill="white"/>
</clipPath>
</defs>
</svg>
